<?xml version="1.0" encoding="utf-8"?>
<!-- Generator: Adobe Illustrator 18.0.0, SVG Export Plug-In . SVG Version: 6.00 Build 0)  -->
<!DOCTYPE svg PUBLIC "-//W3C//DTD SVG 1.1//EN" "http://www.w3.org/Graphics/SVG/1.1/DTD/svg11.dtd">
<svg version="1.1" id="Layer_1" xmlns="http://www.w3.org/2000/svg" xmlns:xlink="http://www.w3.org/1999/xlink" x="0px" y="0px"
	 viewBox="0.4 307 610.9 178.1" enable-background="new 0.4 307 610.9 178.1" xml:space="preserve">
<g>
	<g>
		<path fill="#FFFFFF" d="M190.6,413.5c-1.5-0.1-1.2,1.4-1.4,2.5c-0.9,5.2-3,9.8-6.2,14c-2.6,3.4-5.7,2.9-7.3-1
			c-0.9-2.1-1.5-4.3-1.6-6.6c-1.3-22.1-0.2-44.2,1.9-66.2c0.2-1.8,1.1-4.7-1.2-5c-2.5-0.3-1.8,2.8-2.1,4.5
			c-1.3,7.9-1.8,15.9-2.4,23.9c-0.1,0.9,0.3,2.9-0.9,2.5c-5.9-1.9-7.3,2.9-9.3,6.2c-3.8,6.2-5.6,13.1-6.9,20.3
			c-1.1,5.9-0.4,12-4,17.3c-1.3,1.9-2.2,4.9-5.2,4.2c-2.9-0.7-2.6-3.6-3.1-5.9c-0.1-0.5-0.1-1-0.1-1.4c-0.4-7.4,0.3-14.8,2.7-21.9
			c0.3-1,1.3-2.4-0.2-3.2c-1.1-0.6-1.5,0.9-2.1,1.5c-1.4,1.4-2.9,3-4.9,1.9c-2.1-1.1-1.2-3.2-0.8-4.9c1.1-4.7,1.4-9.4,1-14.2
			c-0.1-1.4,0-3.5-1.5-3.7c-1.9-0.2-2.1,2-2.5,3.4c-1.4,5.2-1.1,10.4-0.7,15.7c0.9,9.6,0.2,19.1-4.5,27.8c-1.8,3.4-4.4,5.9-8.8,6
			c0.5-1.1,1-1.8,1.3-2.5c4.3-10.7,4.4-21.4-0.6-32c-2.1-4.5-5.2-8.2-10.7-8.2c-5.6,0-8.3,4-10.7,8.3c-2,3.6-3,7.5-3.3,11.6
			c-0.8,8-0.2,16.1,4,23.2c3.8,6.5,9.3,7.8,15.8,4.2c1-0.6,1.9-0.9,3-0.8c4.8,0.2,8.1-2,10.8-5.8c4.6-6.4,5.7-13.8,6.4-21.2
			c0.1-1.4,0-2.8,2.1-2.2c1.4,0.4,3.6-0.4,2.9,2.6c-0.6,2.8-0.9,5.7-1.2,8.5c-0.5,5.2-0.8,10.2,0.7,15.3c0.6,2,1.7,3.8,4,4.3
			c2.4,0.5,3.9-1.1,5-2.8c1.5-2.3,2.8-4.8,4.2-7.1c0.9,0.8,0.7,1.9,1.1,2.7c1.1,2.7,2.4,5.4,5.7,5.9c3.5,0.5,5.6-1.8,7.1-4.5
			c1.2-2,2.2-4.2,3.7-7.1c1,3.6,1.6,6.4,3,8.8c2.9,5.2,7,5.7,10.8,1.1c4.3-5,6.4-10.8,7.5-17.2C191.7,415.2,192.2,413.6,190.6,413.5
			z M112.4,433.6c-0.3,1.1-1.6,1.4-2.6,1.7c-3.2,0.9-5.3-0.8-6.9-3.2c-2.2-3.4-3.1-7.2-3.6-11.1c-1.2-8.4-0.2-16.7,3.4-24.4
			c1.4-3.1,3.4-5.8,7-6.1c3.3,0.1,4.9,2.2,6.3,4.5c0.7,1,0,1.4-0.8,1.8c-13.5,7.4-15.7,24.9-4.5,34.9
			C111.3,432.2,112.7,432.5,112.4,433.6z M116.1,428.4c-0.7,1.7-1.5,2.3-3.1,1c-5.7-4.4-7.3-10.3-6.9-17.1
			c0.4-5.9,3.1-10.3,8.4-13.2c2-1.1,3.2-0.9,3.7,1.6c0.7,3.7,1.2,7.2,1.3,10.5C119.1,417.4,118.2,423.1,116.1,428.4z M169.7,392.2
			c-0.2,3.5-0.3,7-0.5,10.3c-0.3,5.4,0.7,10.7-0.6,16c-0.7,2.7-1.6,5.3-3.2,7.5c-0.9,1.3-1.9,2.6-3.7,2.4c-2-0.2-2.8-1.8-3.3-3.4
			c-0.5-1.7-1.1-3.5-1.2-5.2c-0.5-10.2,0.7-20.3,4.9-29.7c1-2.3,2-5.8,5.2-4.9C170.3,386.2,169.8,389.5,169.7,392.2z"/>
		<path fill="#FFFFFF" d="M77.5,391.6l4.7-14.7c6.2-1,8.7-1.7,13.7-3.5c13.3-5,31.9-18.5,29.7-31.9c-1-5.8-5.4-9.3-11.4-9.3
			c-12.1,0-25.5,14.4-37.5,40.6l-0.9,2h-0.7c-16.6,0-27.8-7.8-30.1-20.9c-1-6.2,0.2-11.6,3.4-15.4c2.7-3.2,6.5-4.9,11-4.9
			c4.5,0,6.6,1.3,8.5,2.6c0.6,0.4,1.2,0.8,1.9,1.1l0.6,0.3c0,0,1.3-0.8,0.8-2l-0.4-0.3c-5-3.5-7.4-4.4-11.7-4.4
			c-5.4,0-10.1,2.2-13.4,6.1c-3.8,4.4-5.3,10.7-4.2,17.4c2.3,13.9,15.1,22.9,33.4,23.5l-4.8,13.3c-8.3,23.4-14.9,35.4-21.9,39.9
			l-2.7-0.7c-1.8-0.5-3.4-1-4.9-1.4c-5.9-1.7-9.7-2.8-16.9-2.8c-6.6,0-10.9,1.1-12.8,3.3c-0.8,1-1.1,2.1-0.9,3.3
			c0.8,4.5,7.1,7,17.6,7c11.2,0,18.4-3.7,20.9-5.1l7.4,2.6c5.6,2,9.7,2.9,14.4,2.9c12.8,0,23.7-5.9,28.4-15.3l0.1-0.1v-0.2
			c0-0.3,0-0.6,0.1-0.9c0.1-0.7,0.3-1.7-0.9-2.1l-0.5-0.2l-0.2,0.5c-3.9,8.8-13.7,14.6-24.9,14.6c-7,0-16.3-2.9-19.8-4.1
			C56.5,429.8,69,419.2,77.5,391.6z M82.8,373.7c1.9-6.3,5-14.7,9.1-20.9c7.4-12.2,14.7-17.9,22.6-17.9c4,0,6.3,2,7,6
			c1.1,6.7-4.9,15.6-15.5,23.3c-9.2,6.7-17,8.2-21.5,9.1C83.9,373.5,83.3,373.6,82.8,373.7z M45,433.2c-5.2,2.7-11.1,4.1-17.8,4.1
			c-8.3,0-12.7-1.5-13.2-4.6c-0.1-0.6,0-1.2,0.5-1.6c1.2-1.4,4.5-2.3,9-2.3C30.4,428.7,37.6,430.3,45,433.2z"/>
	</g>
	<g>
		<path fill="#FFFFFF" d="M415.2,357.6c-1.8,0-1.9,1.9-2.3,3.2c-1.2,4.4-1.6,8.9-2,13.4c-1.3,12.4-0.4,24.9-1.5,37.2
			c-0.5,5.2-1.1,10.3-3.6,15c-0.7,1.4-1.7,2.7-3.5,2.7c-2,0-3.1-1.4-3.7-3c-1.4-3.6-1.7-7.2-1.2-11.1c0.7-6.2,2.2-12.3,1.8-18.6
			c-0.2-2.2,0.3-6-1.9-6c-2.7,0-2.3,3.8-2.6,6.2c-0.7,6.2-0.7,12.4-0.6,18.7c0,6.7-2.9,12.1-7.8,16.2c-8.4,7.1-19.5,3.5-21.8-7.2
			c-2.3-10.1-0.3-19.8,5-28.7c0.7-1.2,1.7-2.3,2.8-3.3c4.1-3.6,8-2.4,9.2,2.9c1,4.3,0.8,8.5-0.7,12.6c-0.5,1.3-1.2,2.6-2.5,3.4
			c-0.9,0.5-3,0.2-2.2,1.8c0.6,1.2,2.4,0.6,3.6,0.2c2-0.8,3.5-2.2,4.5-4.2c1.7-3.4,2.1-6.9,1.7-10.5c-0.5-4.3-1.7-8.3-6.3-9.9
			c-4.5-1.6-8,0.8-11.1,3.8c-1.5,1.4-2.7,3.2-3.8,4.9c-4,6.3-6.1,13.2-5.9,20.7c0.1,5.3-2.2,9.2-5,13.1c-1,1.4-2.2,2.7-4.2,2.2
			s-2.4-2.3-2.8-3.9c-0.4-1.8-0.6-3.6-0.6-5.4c-0.1-9.2,0.3-18.4,1.6-27.5c0.8-6.1,2-12,3.4-17.9c0.5-1.9,0.2-3.8-1.9-4.6
			c-2.1-0.9-3.2,0.8-3.9,2.3c-1.3,2.4-2.5,4.9-3.5,7.3c-3.2,8-5.1,16.5-7.6,25.7c0.3-9.8,2.1-18.7,2-27.6c0-1.8,0.6-4.7-1.7-4.9
			c-1.7-0.2-1.9,2.7-2.2,4.5c-1.9,11.2-1.4,22.4-1.4,33.8c0,5.3-2.3,9.7-5.3,13.9c-0.8,1.2-2,2.3-3.6,1.8c-1.7-0.5-1.9-2.1-2-3.5
			c-0.3-4.4-0.1-8.8,0.2-13.2c0.7-7.9,2.4-15.9,1.3-24c-0.6-4.6-3.1-7.5-6.6-8.2c-6.2-1.3-15.2,8.8-13.3,14.9c0.3,1,0.8,1.7,1.8,1.8
			c1.1,0.1,1.7-0.6,2-1.5c0.3-1,0.3-2,0.4-3.1c0.3-3.5,1.6-6.6,4.3-8.8c2.9-2.4,6.2-1.5,7.3,2.1c1,2.8,0.7,5.6,0.3,8.4
			c-0.2,1.1-0.6,1.4-1.6,1.8c-10.2,4-15.1,12.5-18.1,22.3c-1.7,5.4-2,11-0.1,16.5c1.6,4.6,5.1,5.4,8.8,2.3c1.8-1.5,3.2-3.5,4.4-5.4
			c1.3-2.1,2.5-4.3,3.9-6.8c0.6,2.1,1,3.8,1.6,5.3c0.9,2.2,2.1,4.3,4.8,4.7c2.8,0.4,4.3-1.5,5.6-3.5c1.2-1.8,2.3-3.7,3.9-6.4
			c0,4.1-0.1,7.2,0,10.3c0,1.1,0.4,2.5,1.9,2.5c1.4-0.1,1.3-1.4,1.4-2.4s0.1-2.1,0.1-3.1c-0.2-8.2,0.7-16.3,2.6-24.2
			c1.9-7.6,3.5-15.3,6.9-23.5c-0.6,6.8-1.1,12.4-1.6,18.1c-0.6,5.8-0.1,11.4,0.2,17.1c0.3,4.3,0.8,8.5,2.5,12.5
			c2,4.9,5.3,5.5,8.8,1.7c2.4-2.4,3.8-5.5,5.8-8.9c3.3,8.1,9.2,11.4,17.4,11.5c8.5,0,13.4-5.4,17.8-12.6c0.7,3.1,1.3,5.4,2.6,7.5
			c2.7,4.6,6.2,4.7,8.7,0c1.4-2.4,2.3-5,3.8-8.2c0.8,8.4,0.7,16.1,0.4,23.6c-0.2,5-0.5,9.8-2.2,14.5c-2.3,6.3-6,8-12.3,6
			c-1.9-0.6-3.4,0-4.4,1.6c-1,1.6-1.3,3.2,0.9,4.2c2.1,0.7,4.2,0.5,6.3,0.3c5.9-0.4,7.5-0.9,10.2-4.1c2.5-3,4.3-6.9,4.8-10.6
			c1.1-8.1,1.4-13,1.3-21.9c-0.1-4.4-0.9-8.7-1.1-13.1c-1-17.5,3.1-34.5,4.3-51.7C418,372.8,418.4,357.6,415.2,357.6z M310.3,427.9
			c-1.6,2.1-3.2,5.2-6.4,4.1c-3.4-1.1-2.9-4.6-2.8-7.3c0.4-8.1,3.7-14.9,9.3-20.7c1.8-1.9,4-3.2,7-4
			C317.8,410.4,316.7,419.9,310.3,427.9z"/>
		<path fill="#FFFFFF" d="M321.7,341.4c-0.3-1.8-1.8-3-3.9-3l0,0c-3.6,0.1-8.9,1.8-13.4,4.4c-2.6,1.4-4.2,2.8-7,5.2l-1.7,1.4
			c-5.9-1.1-8.3-2.9-14.5-10c-9.4-10.7-14.9-15.5-21.5-19c-7.6-3.9-16.6-6-25.1-5.8c-11.7,0.2-22.1,4.7-28.6,12.4
			c-5.3,6.4-7.4,14.4-6.2,22.6c2.5,15.9,18.8,28.7,36.2,28.7h0.6c8.3-0.2,15.2-2.9,19.3-7.7c3.1-3.6,4.2-8.1,3.5-13
			c-1.5-9.3-10.6-16.6-20.8-16.6h-0.4c-5.8,0.1-9.8,2.7-11.6,7.3c-0.1,0.2,0,0.5,0.2,0.6l0.7,0.5c0.1,0.1,0.3,0.1,0.5,0.1
			c0.2,0,0.3-0.1,0.4-0.3c2.3-4.2,5.3-6,9.8-6.1h0.3c8.2,0,15.2,6.2,16.5,14.7c0.7,4.6-0.3,8.6-2.9,11.8c-3.3,3.9-8.7,6.1-15.5,6.2
			h-0.6c-15.6,0-30.3-12.3-32.7-27.5c-1.2-7.3,0.8-14.5,5.6-20.2c5.9-7,15.4-11.1,26.1-11.3h0.7c9,0,17.9,3.2,24.9,8.9
			c3.2,2.6,7,6.3,11.1,11c9.1,10.3,13,13.1,21.3,14.8c-9,8.9-16.8,21.1-22.5,35.2c-13.3,0.4-20.6,2.2-28.6,7
			c-4.5,2.8-8.3,6.1-11.4,9.4c-3.4-1-5-1.3-8.4-1.2c-8.6,0.2-16.8,3.9-21.9,10c-3.9,4.7-5.6,10.1-4.7,15.5
			c1.8,11.1,12.2,18.1,27.3,18.1c0.3,0,0.6,0,0.9,0c11.6-0.2,22.4-4.8,32.2-13.7c8.8-7.8,15-17.9,20.3-32.6l2.6-7.3l0.7-1.7
			c0.1,0,0.2,0,0.3,0c1.7,0.1,6.1,0.5,9.5,0.5c1,0,1.9,0,2.7-0.1l-0.1,0.6c-1.7,9.6-3.4,12.8-6.4,16.2c-0.2,0.2-0.2,0.6,0,0.8
			l0.9,0.8c0.1,0.1,0.3,0.1,0.4,0.2c0.2,0,0.3-0.1,0.4-0.2l0.2-0.3c1.9-2.3,2.8-3.3,4.4-6.1c1.2-2.2,1.7-3.7,2.3-5.8
			c0.4-1.4,1-3.2,1.9-5.6l0.6-1.5c5.4-3.8,7.7-7.1,7.2-10.2c-0.3-1.8-1.4-2.9-3-2.9c-3.6,0.1-6.4,3.5-8.2,10.2
			c-1.3,0.2-4.6,0.3-7.9,0.3c-1.6,0-3.1,0-4.2-0.1c1.5-4.3,3.2-8.5,6.2-15.6c4.1-9.5,6.2-13.3,9-16.7c0.3-0.4,0.6-0.8,1-1.2
			c0.4-0.5,0.9-1,1.3-1.5c1.7,0.1,2.4,0.1,3.4,0.1c9-0.2,16.2-4,19.1-7.4C321.4,343.7,321.9,342.5,321.7,341.4z M316.5,340.4v0.6
			c0.8,0,1.2,0.2,1.3,0.6c0,0.2-0.4,1.3-1.7,2.7c-1.8,1.9-6.1,5.2-14.6,5.3h-1c4.7-4.7,11.7-8.4,15.9-8.5L316.5,340.4L316.5,340.4z
			 M222.9,443.1c-12.6,0-21.6-5.9-23-14.9c-0.8-5.2,0.8-10.3,4.4-14.7c4.5-5.3,11.4-8.5,18.7-8.6h0.4c1.7,0,2.8,0.2,5,0.6l0.5,0.1
			c-4.7,6.5-6.4,11.7-5.6,17c0.8,5.1,4,8.4,8,8.4l0,0c3-0.1,5.9-1.7,7.7-4.6c2.4-3.3,3.4-7.3,2.8-11.1c-0.7-4.7-3.3-8-8.1-10.5
			c9.1-9.2,20.4-14.2,32.6-14.5c0.3,0,0.7,0,1.1,0c0.7,0,1.6,0,2.6,0.1l-6,17.4c-7.7,22.8-21.7,35.1-40.2,35.4L222.9,443.1z
			 M234.6,425.8c-1,1.2-2.2,1.8-3.5,1.8c-2.4,0-4.3-2.1-4.8-5.5c-0.8-4.8,0.7-9,5.3-15.3c3.2,2,4.6,4,5.2,7.8
			C237.4,419.2,236.6,423.4,234.6,425.8z"/>
	</g>
	<path fill="#FFFFFF" d="M588.8,402.2c-1.1-1.8-2.1-3.6-3-5.5c-0.9-1.8-1.6-3.6-1.6-5.6c0-2.7,0.3-5.5,3.6-6.3
		c3.3-0.7,4.8,1.5,5.9,4.1c1.1,2.5,0.9,5.2,1.3,7.8c0.2,1.6,0.8,3,2.8,2.9c1.9-0.1,2.1-1.7,2.1-3.1c-0.2-5.2-2-9.7-6.5-12.7
		c-4.6-3.2-10.2-1.1-11.9,4.2c-1,3.1-0.7,6.2,0.3,9.1c1.7,5.3,4.5,10,7.1,14.9c2.9,5.1,6.1,10,7.9,15.7c1.4,4.2,0.7,7.8-1.7,9.1
		c-2.4,1.4-6.1-0.2-8.8-3.8c-4.2-5.4-4.7-11.5-4-18c0.1-0.8,0.4-3.2-0.7-2.2c-1.8,2.6-2.3,5.6-3.5,8.3c-1.9,4.2-3.7,8.4-6.9,11.9
		c-2.6,2.8-4.8,2.4-6.4-1.1c-0.8-1.8-1.2-3.7-1.5-5.7c-1.5-11.4-0.9-22.9-0.7-34.5c0.1-8.6,0.6-8.9,9.1-7c1.3,0.3,2.9,1.1,3.4-0.9
		c0.5-1.9-1-2.5-2.5-3.1c-2.5-0.9-5-0.7-7.5-0.5c-1.5,0.1-2-0.2-1.8-1.9c0.5-4.5,1-8.9,1.3-13.4c0.3-4,1.7-11.8,0.3-12.1
		c-0.8,0-1.2,2.2-1.5,3.3c-1.9,7.3-3.1,14.9-3.9,22.4c-0.2,2-0.8,3-2.7,3.9c-3.4,1.6-6.1,3.9-6.6,7.8c-0.1,0.8-0.3,1.8,0.8,2
		c1,0.2,1.4-0.6,1.5-1.5c0.5-3.5,2.9-4.9,6.2-5.9c-0.9,9.1-1.4,18-1.1,26.8c0.2,6.6-2.8,11.9-6.4,16.9c-2,2.9-4.4,2.3-5.5-1.1
		c-0.3-1-0.5-2-0.6-3c-0.7-8.9-0.1-18,0.9-26.9c0.6-5.3,1.6-10.4,2.8-15.6c0.4-1.8,0.5-3.6-1.5-4.5c-2.3-1-3.1,1.1-3.9,2.5
		c-1.6,2.6-2.5,5.4-3.5,8.2c-2.4,6.5-3.7,13.2-5.8,20.7c0.3-8.8,1.8-16.7,1.6-24.6c0-1.5,0.3-4-1.4-4.1c-1.8-0.1-1.8,2.3-2,3.8
		c-1.6,9.6-1.2,19.3-1,28.9c0.1,4.8-1.6,8.7-3.9,12.6c-0.8,1.4-1.8,3.1-3.7,2.6c-2.1-0.5-2-2.6-2.1-4.3c-0.4-5.8,0.4-11.5,0.9-17.2
		c0.4-5.1,1.2-10.1,0.2-15.1c-0.6-3-2-5.5-5.1-6.5c-3.1-1.1-5.7,0.2-7.8,2.3c-2.5,2.4-4.2,5.2-4.7,8.6c-0.2,1.5-0.4,3.5,1.5,3.7
		c2,0.3,2.2-1.6,2.2-3.2c0-3,1-5.7,2.9-7.9c1.2-1.4,2.7-2.3,4.6-1.9c2,0.4,2.7,2,3.1,3.7c0.6,2.2,0.4,4.4,0.1,6.6
		c-0.1,0.9-0.4,1.3-1.3,1.8c-12.2,6.2-19.1,19.5-16.7,32.5c0.4,2.3,1.1,4.7,3.6,5.5c2.8,0.9,4.6-0.9,6.3-2.8c2.5-2.7,3.9-6.1,6-9.5
		c0.6,2,1,3.7,1.7,5.2c2.1,4.5,5.8,4.9,8.7,0.9c1.2-1.7,2.2-3.6,3.7-6.1c0,3.3,0,5.8,0.1,8.3c0,1.3,0.1,3,1.7,3c1.8,0,1.3-1.8,1.4-3
		c0.3-5.4-0.2-10.8,0.8-16.2c1.7-9.3,3.7-18.7,7.2-28.5c-0.5,6.6-1.1,12.1-1.4,17.7c-0.3,7.9-0.1,15.9,2.2,23.6
		c0.6,2.1,1.5,4.4,4,4.8s4-1.5,5.3-3.2c2.3-2.8,3.6-6.2,5.4-9.6c0.6,2.8,1.1,5.2,1.6,7.4c0.5,2.4,1.3,4.7,2.5,6.8
		c2.7,4.6,6.1,5.1,9.6,1.2c1-1.1,2-2.3,2.7-3.6c1.7-2.9,3.2-5.8,4.9-8.8c0.9,4.1,2.4,7.4,4.9,10.4c5.8,7,14,6.7,16.6-2.2
		c0-0.1,1.4-3.8,0.3-7.7C598.6,416.7,593.4,409.6,588.8,402.2z M513.9,425.8c-0.9,1.2-1.9,2.4-3,3.3c-2,1.7-3.9,1.2-5-1.2
		c-3.6-7.8,5.2-24.5,13.7-26.2C520.2,410.3,519.3,418.7,513.9,425.8z"/>
	<path fill="#FFFFFF" d="M536.6,331.8c-3.9-1.4-6.3-1.9-8.6-1.9c-0.7,0-1.4,0-2.1,0.1c-4.2,0.5-7.9,1.8-12,4.4
		c-4-3.1-9.6-4.7-16.3-4.7c-1.6,0-3.2,0.1-4.8,0.3c-2.9,0.3-10.7,1.6-19.7,6.7c-11.5,6.6-20.7,16.7-27.4,30.3
		c-6.6,13.3-8.2,25.1-5.7,38.3c0.2,1.2,0.5,2.4,1,4.8l-1.5,0.8c-13.7,7.6-19.8,14.9-18.3,22c1.2,6.1,5.9,9.5,12.8,9.5
		c0.8,0,1.7,0,2.6-0.1c6.4-0.7,13.5-4.1,20.2-9.6c6.7,4,11.9,6.8,18.4,6.8c0.9,0,1.8,0,2.7-0.1c5.6-0.6,9.8-2.7,12.2-5.9
		c1.9-2.6,2.5-5.9,1.8-9.4c-1.3-6.7-5.9-11.5-14.7-15.7c3.6-6,7-12.7,10.5-20.6c2.2,0.5,3.8,0.7,5.6,0.7c1,0,2.2-0.1,3.5-0.2
		c8.1-0.9,15.5-5.3,20.7-12.2c5.5-7.4,7.6-17,5.9-25.9c-1.2-6.1-3.6-10.4-7.7-14c3.3-2.5,7-4,11.2-4.4c0.8-0.1,1.6-0.1,2.3-0.1
		c2.3,0,4.4,0.4,7,1.4h0.1c0,0,0.1,0,0.1-0.1l0.3-0.9C536.7,331.9,536.7,331.8,536.6,331.8z M459.3,430.4c5.9-5.3,9-8.8,13.8-15.6
		l0.5-0.6c1.1-1.4,1.8-2.4,3.1-4.5c6.2,2.5,10.7,7.7,11.9,13.6c0.8,3.9,0.2,7.2-1.6,9.7c-1.8,2.5-4.9,4-8.9,4.5
		c-0.9,0.1-1.8,0.1-2.6,0.1l0,0c-5.6,0-11-2-17.1-6.4L459.3,430.4z M455,431c-7,6.1-12.2,8.7-18.3,9.4c-0.8,0.1-1.6,0.1-2.4,0.1l0,0
		c-5.8,0-9.3-2.5-10.2-7c-1.4-7.2,6.6-17.1,17.5-21.5C444.3,419.7,448.6,425.7,455,431z M458.6,407.4L458.6,407.4
		C458.6,407.5,458.7,407.5,458.6,407.4c1.8-0.1,3.2-0.2,4.6-0.2c2.7,0,5.1,0.3,8.4,1.2l-0.8,1.6c-4.4,8.5-9.1,15.2-14.3,19.8
		c-0.1,0.1-0.1,0.1-0.2,0.2c-0.1-0.1-0.2-0.2-0.4-0.3c-2.5-2.1-8.1-7.1-11.8-18.7C448.9,409.1,453.3,408,458.6,407.4z M482.5,383.6
		c-5.1-2.3-7.8-6-8.9-11.4c-1.3-6.5,0.5-12.5,4.7-16.1c0,0,0.1-0.1,0-0.2l-0.5-0.8l-0.1-0.1h-0.1c-5,4.3-7,10.6-5.7,17.4
		c1.2,6.1,4.3,9.9,10.1,12.8l0.1,0.1c-3.2,8.5-6.2,15.4-9.5,21.6c-3.2-0.9-5.7-1.3-8.5-1.3c-1.8,0-3.8,0.1-6.8,0.5
		c-5.2,0.6-8.5,1.2-13.6,3.1c-0.2-0.9-0.4-1.5-0.6-2.1c-0.2-0.7-0.4-1.2-0.5-1.9c-2.4-12.2-0.8-23.6,5.4-36.9
		c6.3-13.5,15.2-23.6,26.6-30.2c8.8-5.1,16.6-6.4,19.5-6.7c1.2-0.1,2.4-0.2,3.6-0.2c5.4,0,10.1,1.5,14.3,4.6
		c-14.2,10.6-22.5,29-26.2,39L482.5,383.6z M496.3,386.5c-0.7,0.1-1.4,0.1-2,0.1c-1.7,0-3.4-0.3-5.8-0.7c0.6-1.8,7.2-20.9,11-29.1
		c3.2-6.8,7.1-13.6,13.8-18.9c2.6,3.2,3.5,4.8,4.4,9.2c1.7,8.6,0.6,21.8-5.8,30.6c-3.9,5.2-9,8.2-15.5,8.9l0,0
		C496.4,386.5,496.4,386.5,496.3,386.5L496.3,386.5z"/>
</g>
<g>
	<path fill="#FFFFFF" d="M78.6,470.2h-4.6l-1.3,3.5h-1.5l4.8-12.7h0.7l4.7,12.7h-1.6L78.6,470.2z M74.5,468.9h3.7l-1.4-3.8l-0.4-1.9
		l0,0l-0.4,1.9L74.5,468.9z"/>
	<path fill="#FFFFFF" d="M93.1,473.1c-0.4,0.3-0.8,0.5-1.3,0.6c-0.5,0.1-1,0.2-1.5,0.2c-0.7,0-1.3-0.1-1.8-0.3
		c-0.5-0.2-0.9-0.5-1.2-1c-0.3-0.4-0.5-0.9-0.7-1.5c-0.2-0.6-0.2-1.2-0.2-1.9c0-1.5,0.3-2.7,1-3.5c0.7-0.8,1.6-1.2,2.9-1.2
		c0.6,0,1.1,0,1.5,0.1c0.4,0.1,0.8,0.2,1.1,0.4l-0.4,1.2c-0.3-0.2-0.6-0.3-0.9-0.4c-0.3-0.1-0.7-0.1-1.1-0.1c-1.7,0-2.6,1.2-2.6,3.5
		c0,0.5,0,0.9,0.1,1.3s0.2,0.8,0.4,1.1c0.2,0.3,0.5,0.6,0.8,0.8c0.3,0.2,0.8,0.3,1.3,0.3c0.4,0,0.8-0.1,1.2-0.2
		c0.3-0.1,0.6-0.3,0.8-0.4L93.1,473.1z"/>
	<path fill="#FFFFFF" d="M100.8,473.7v-5.1c0-0.5,0-0.9-0.1-1.2c-0.1-0.3-0.2-0.6-0.3-0.9c-0.1-0.3-0.3-0.4-0.6-0.5
		c-0.2-0.1-0.6-0.2-1-0.2c-0.6,0-1.1,0.2-1.5,0.5c-0.5,0.4-0.8,0.8-0.9,1.4v6H95v-12.5h1.4v4.6h0.1c0.3-0.4,0.7-0.7,1.1-0.9
		s1-0.3,1.6-0.3c0.5,0,0.9,0.1,1.3,0.2c0.4,0.1,0.7,0.3,0.9,0.6c0.2,0.3,0.4,0.7,0.5,1.2c0.1,0.5,0.2,1.1,0.2,1.8v5.4H100.8z"/>
	<path fill="#FFFFFF" d="M104.8,462.1c0-0.3,0.1-0.5,0.3-0.7c0.2-0.2,0.4-0.3,0.7-0.3c0.3,0,0.5,0.1,0.7,0.3
		c0.2,0.2,0.3,0.4,0.3,0.7c0,0.3-0.1,0.5-0.3,0.7c-0.2,0.2-0.4,0.3-0.7,0.3c-0.3,0-0.5-0.1-0.7-0.3
		C104.9,462.6,104.8,462.4,104.8,462.1z M105.1,464.8h1.4v8.9h-1.4V464.8z"/>
	<path fill="#FFFFFF" d="M111.2,471.5c0,0.4,0.1,0.7,0.2,0.9c0.1,0.2,0.3,0.3,0.6,0.3c0.2,0,0.3,0,0.5,0s0.4-0.1,0.6-0.2l0.2,1.1
		c-0.2,0.1-0.5,0.2-0.8,0.2c-0.3,0-0.6,0.1-0.9,0.1c-0.5,0-1-0.2-1.3-0.5c-0.3-0.3-0.5-0.8-0.5-1.6v-10.7h1.4L111.2,471.5
		L111.2,471.5z"/>
	<path fill="#FFFFFF" d="M121.7,470.6c0,0.6,0,1.2,0,1.7s0.1,1,0.2,1.5h-1l-0.4-1.3h-0.1c-0.2,0.4-0.6,0.8-1,1
		c-0.5,0.3-1,0.4-1.6,0.4c-1.2,0-2.1-0.4-2.7-1.1c-0.6-0.7-0.9-1.9-0.9-3.5c0-1.5,0.4-2.7,1.1-3.5c0.7-0.8,1.7-1.2,3-1.2
		c0.4,0,0.8,0,1.1,0.1c0.3,0,0.5,0.1,0.8,0.2v-3.7h1.4L121.7,470.6L121.7,470.6z M118.1,472.7c0.6,0,1.1-0.2,1.5-0.5
		c0.4-0.3,0.6-0.8,0.7-1.4v-4.5c-0.2-0.2-0.5-0.3-0.7-0.4c-0.3-0.1-0.6-0.1-1.1-0.1c-0.8,0-1.5,0.3-1.9,0.8
		c-0.5,0.5-0.7,1.4-0.7,2.6c0,0.5,0,0.9,0.1,1.4c0.1,0.4,0.2,0.8,0.4,1.1c0.2,0.3,0.4,0.5,0.7,0.7
		C117.4,472.6,117.7,472.7,118.1,472.7z"/>
	<path fill="#FFFFFF" d="M128.7,466.1c-0.4-0.1-0.7-0.2-1-0.2c-0.5,0-0.9,0.1-1.2,0.4s-0.5,0.6-0.6,1.1v6.3h-1.4v-8.9h1l0.3,1.1h0.1
		c0.2-0.4,0.5-0.7,0.8-0.9c0.3-0.2,0.7-0.3,1.2-0.3c0.3,0,0.7,0.1,1.2,0.2L128.7,466.1z"/>
	<path fill="#FFFFFF" d="M137,473c-0.4,0.3-0.8,0.5-1.4,0.7c-0.5,0.2-1.1,0.3-1.7,0.3c-0.7,0-1.3-0.1-1.8-0.3
		c-0.5-0.2-0.9-0.5-1.2-1c-0.3-0.4-0.6-0.9-0.7-1.5c-0.2-0.6-0.2-1.2-0.2-1.9c0-1.5,0.3-2.7,1-3.5c0.7-0.8,1.7-1.2,2.9-1.2
		c0.4,0,0.8,0,1.2,0.1s0.8,0.3,1.1,0.5c0.3,0.3,0.6,0.6,0.8,1.1c0.2,0.5,0.3,1.1,0.3,1.8c0,0.4,0,0.8-0.1,1.3h-5.8
		c0,0.5,0.1,1,0.2,1.4c0.1,0.4,0.3,0.8,0.5,1c0.2,0.3,0.5,0.5,0.9,0.6c0.4,0.2,0.8,0.2,1.3,0.2c0.4,0,0.8-0.1,1.2-0.2
		c0.4-0.1,0.7-0.3,0.9-0.5L137,473z M133.9,465.8c-0.7,0-1.3,0.2-1.7,0.6c-0.4,0.4-0.7,1-0.8,1.9h4.5c0-0.9-0.2-1.6-0.5-1.9
		C135.1,466,134.6,465.8,133.9,465.8z"/>
	<path fill="#FFFFFF" d="M145.4,473.7v-5.1c0-0.9-0.1-1.6-0.4-2.1s-0.8-0.7-1.5-0.7c-0.6,0-1.2,0.2-1.6,0.5
		c-0.4,0.3-0.7,0.8-0.9,1.3v6.2h-1.4v-8.9h1l0.3,1.1h0.1c0.3-0.4,0.7-0.7,1.2-0.9c0.5-0.2,1.1-0.4,1.7-0.4c0.5,0,0.9,0.1,1.3,0.2
		c0.4,0.1,0.7,0.3,0.9,0.6c0.2,0.3,0.4,0.7,0.6,1.2c0.1,0.5,0.2,1.1,0.2,1.8v5.4L145.4,473.7L145.4,473.7z"/>
	<path fill="#FFFFFF" d="M148.7,462c0-0.3,0.1-0.5,0.3-0.6c0.2-0.2,0.4-0.2,0.7-0.2s0.6,0.1,0.8,0.3c0.2,0.2,0.3,0.5,0.3,0.9
		c0,0.4-0.1,0.7-0.2,1c-0.1,0.3-0.3,0.5-0.4,0.7c-0.2,0.2-0.3,0.4-0.5,0.5c-0.2,0.1-0.3,0.2-0.5,0.3l-0.5-0.6
		c0.3-0.1,0.5-0.3,0.6-0.5c0.2-0.2,0.2-0.5,0.2-0.8c0,0-0.1,0-0.2,0c-0.2,0-0.4-0.1-0.5-0.2C148.8,462.4,148.7,462.2,148.7,462z"/>
	<path fill="#FFFFFF" d="M155.7,471.3c0-0.4-0.1-0.6-0.3-0.8c-0.2-0.2-0.5-0.4-0.8-0.5c-0.3-0.1-0.7-0.3-1-0.4
		c-0.4-0.1-0.7-0.3-1-0.5c-0.3-0.2-0.6-0.5-0.8-0.8c-0.2-0.3-0.3-0.7-0.3-1.3c0-0.9,0.2-1.5,0.7-1.9c0.5-0.4,1.2-0.6,2.1-0.6
		c0.6,0,1.2,0.1,1.6,0.2c0.4,0.1,0.8,0.2,1.1,0.4l-0.3,1.2c-0.3-0.1-0.6-0.2-1-0.4c-0.4-0.1-0.8-0.2-1.3-0.2s-0.9,0.1-1.2,0.3
		c-0.3,0.2-0.4,0.5-0.4,0.9c0,0.3,0.1,0.6,0.3,0.7c0.2,0.2,0.5,0.3,0.8,0.5c0.3,0.1,0.7,0.3,1,0.4c0.4,0.1,0.7,0.3,1,0.5
		c0.3,0.2,0.6,0.5,0.8,0.8c0.2,0.3,0.3,0.8,0.3,1.3c0,0.4-0.1,0.7-0.2,1.1c-0.1,0.4-0.3,0.6-0.6,0.9c-0.3,0.2-0.6,0.4-1,0.6
		c-0.4,0.1-0.8,0.2-1.4,0.2c-0.7,0-1.3-0.1-1.7-0.2c-0.5-0.1-0.9-0.3-1.2-0.5l0.4-1.2c0.3,0.2,0.6,0.3,1.1,0.4
		c0.4,0.1,0.9,0.2,1.4,0.2s0.9-0.1,1.3-0.3C155.5,472.2,155.7,471.8,155.7,471.3z"/>
	<path fill="#FFFFFF" d="M164,461.2h1.4v4.5h0.1c0.3-0.3,0.6-0.6,1.1-0.8c0.4-0.2,0.9-0.3,1.4-0.3c1.2,0,2,0.4,2.6,1.1
		s0.9,1.9,0.9,3.5c0,1.6-0.4,2.8-1.2,3.6c-0.8,0.8-1.8,1.2-3.2,1.2c-0.7,0-1.3-0.1-1.8-0.2s-1-0.3-1.2-0.5L164,461.2L164,461.2z
		 M167.7,465.8c-0.6,0-1.1,0.2-1.5,0.5c-0.4,0.3-0.6,0.8-0.8,1.4v4.5c0.2,0.1,0.5,0.2,0.8,0.3c0.3,0.1,0.7,0.1,1,0.1
		c0.8,0,1.5-0.3,2-0.9c0.5-0.6,0.7-1.5,0.7-2.7c0-0.5,0-0.9-0.1-1.3c-0.1-0.4-0.2-0.8-0.4-1c-0.2-0.3-0.4-0.5-0.7-0.7
		C168.5,465.9,168.1,465.8,167.7,465.8z"/>
	<path fill="#FFFFFF" d="M173.2,469.2c0-1.5,0.3-2.7,1-3.5c0.7-0.8,1.7-1.2,2.9-1.2c0.7,0,1.3,0.1,1.8,0.3s0.9,0.5,1.2,1
		c0.3,0.4,0.6,0.9,0.7,1.5c0.2,0.6,0.2,1.2,0.2,1.9c0,1.5-0.3,2.7-1,3.5c-0.7,0.8-1.7,1.2-2.9,1.2c-0.7,0-1.3-0.1-1.8-0.3
		c-0.5-0.2-0.9-0.5-1.2-1c-0.3-0.4-0.6-0.9-0.7-1.5C173.3,470.6,173.2,469.9,173.2,469.2z M174.6,469.2c0,0.5,0,0.9,0.1,1.3
		s0.2,0.8,0.4,1.1c0.2,0.3,0.4,0.6,0.8,0.8c0.4,0.2,0.7,0.3,1.1,0.3c1.6,0,2.4-1.1,2.4-3.5c0-0.5,0-0.9-0.1-1.3s-0.2-0.8-0.4-1.1
		c-0.2-0.3-0.4-0.6-0.8-0.7c-0.4-0.1-0.7-0.3-1.1-0.3C175.4,465.8,174.6,466.9,174.6,469.2z"/>
	<path fill="#FFFFFF" d="M182.8,469.2c0-1.5,0.3-2.7,1-3.5c0.7-0.8,1.7-1.2,2.9-1.2c0.7,0,1.3,0.1,1.8,0.3s0.9,0.5,1.2,1
		c0.3,0.4,0.6,0.9,0.7,1.5c0.2,0.6,0.2,1.2,0.2,1.9c0,1.5-0.3,2.7-1,3.5c-0.7,0.8-1.7,1.2-2.9,1.2c-0.7,0-1.3-0.1-1.8-0.3
		c-0.5-0.2-0.9-0.5-1.2-1c-0.3-0.4-0.6-0.9-0.7-1.5C182.9,470.6,182.8,469.9,182.8,469.2z M184.3,469.2c0,0.5,0,0.9,0.1,1.3
		s0.2,0.8,0.4,1.1c0.2,0.3,0.4,0.6,0.8,0.8c0.4,0.2,0.7,0.3,1.1,0.3c1.6,0,2.4-1.1,2.4-3.5c0-0.5,0-0.9-0.1-1.3s-0.2-0.8-0.4-1.1
		c-0.2-0.3-0.4-0.6-0.8-0.7c-0.4-0.1-0.7-0.3-1.1-0.3C185.1,465.8,184.3,466.9,184.3,469.2z"/>
	<path fill="#FFFFFF" d="M195.1,469.7h-0.8v4h-1.4v-12.5h1.4v7.6l0.7-0.3l2.8-3.8h1.7l-2.8,3.6l-0.7,0.6l0.9,0.7l3,4.1h-1.8
		L195.1,469.7z"/>
	<path fill="#FFFFFF" d="M207.6,461.2h1.4l-1.1,5.1h0.1c0.2-0.2,0.4-0.4,0.6-0.6c0.2-0.2,0.5-0.4,0.7-0.6c0.3-0.2,0.5-0.3,0.8-0.4
		s0.6-0.2,1-0.2c0.7,0,1.2,0.2,1.5,0.7c0.3,0.5,0.5,1.1,0.5,1.9c0,1.1-0.1,2-0.4,2.9c-0.3,0.8-0.7,1.5-1.2,2.1s-1.1,1-1.7,1.3
		c-0.6,0.3-1.3,0.5-1.9,0.5c-0.6,0-1.2-0.1-1.7-0.2c-0.5-0.1-0.8-0.3-1.1-0.5L207.6,461.2z M210.6,465.7c-0.3,0-0.6,0.1-0.9,0.2
		s-0.6,0.3-0.9,0.6s-0.5,0.5-0.8,0.8c-0.2,0.3-0.4,0.6-0.6,0.9l-0.9,4.2c0.4,0.3,0.9,0.4,1.5,0.4c0.4,0,0.8-0.1,1.2-0.4
		c0.4-0.2,0.8-0.6,1.2-1c0.3-0.4,0.6-1,0.9-1.7c0.2-0.7,0.3-1.4,0.3-2.2c0-0.6-0.1-1.1-0.3-1.4C211.1,465.8,210.9,465.7,210.6,465.7
		z"/>
	<path fill="#FFFFFF" d="M216.7,470.6l0.1,1.7h0.1l0.7-1.7l3-5.8h1.4l-4.2,7.9c-0.3,0.6-0.6,1.2-0.9,1.7c-0.3,0.6-0.6,1.1-0.9,1.5
		c-0.3,0.4-0.7,0.8-1,1.1c-0.3,0.3-0.7,0.4-1.1,0.4c-0.2,0-0.4,0-0.5,0c-0.1,0-0.3-0.1-0.4-0.1l0.4-1.2c0.1,0,0.3,0.1,0.4,0.1
		c0.3,0,0.7-0.2,1-0.5c0.3-0.4,0.7-1,1.2-1.8l-1.5-8.9h1.4L216.7,470.6z"/>
	<path fill="#FFFFFF" d="M227,461.2c0.3,0,0.5-0.1,0.9-0.1c0.3,0,0.6,0,1-0.1c0.3,0,0.7,0,1,0c0.3,0,0.6,0,0.9,0
		c1.1,0,2.1,0.2,2.9,0.5c0.8,0.3,1.4,0.8,1.9,1.3c0.5,0.6,0.9,1.2,1.1,2s0.3,1.6,0.3,2.6c0,0.9-0.1,1.7-0.3,2.5
		c-0.2,0.8-0.6,1.5-1.1,2.1c-0.5,0.6-1.2,1.1-2,1.5c-0.8,0.4-1.8,0.6-3.1,0.6c-0.2,0-0.4,0-0.8,0c-0.3,0-0.6,0-1,0
		c-0.3,0-0.7,0-1-0.1c-0.3,0-0.5,0-0.7-0.1L227,461.2L227,461.2z M230.8,463.2c-0.3,0-0.5,0-0.8,0c-0.3,0-0.5,0-0.6,0.1v8.3
		c0,0,0.1,0,0.2,0c0.1,0,0.2,0,0.4,0c0.1,0,0.3,0,0.4,0c0.1,0,0.2,0,0.3,0c0.7,0,1.3-0.1,1.7-0.4c0.5-0.2,0.8-0.6,1.1-1
		c0.3-0.4,0.5-0.9,0.6-1.4s0.2-1.1,0.2-1.6s0-1-0.1-1.5c-0.1-0.5-0.3-0.9-0.5-1.3c-0.3-0.4-0.6-0.7-1.1-1
		C232,463.4,231.4,463.2,230.8,463.2z"/>
	<path fill="#FFFFFF" d="M245.6,473c-0.4,0.3-0.8,0.5-1.5,0.7c-0.6,0.2-1.3,0.3-2,0.3c-1.5,0-2.5-0.4-3.2-1.3c-0.7-0.8-1-2-1-3.5
		c0-1.6,0.4-2.8,1.1-3.6c0.7-0.8,1.8-1.2,3.2-1.2c0.5,0,0.9,0.1,1.3,0.2c0.4,0.1,0.8,0.3,1.2,0.6c0.3,0.3,0.6,0.6,0.8,1.1
		s0.3,1,0.3,1.7c0,0.3,0,0.5,0,0.8c0,0.3-0.1,0.6-0.1,0.9h-5.4c0,0.8,0.2,1.3,0.6,1.7c0.4,0.4,0.9,0.6,1.7,0.6
		c0.5,0,0.9-0.1,1.3-0.2c0.4-0.1,0.7-0.3,0.9-0.5L245.6,473z M242.3,466.3c-0.6,0-1.1,0.2-1.4,0.5c-0.3,0.4-0.5,0.9-0.5,1.5h3.3
		c0-0.6-0.1-1.1-0.3-1.5C243.2,466.4,242.9,466.3,242.3,466.3z"/>
	<path fill="#FFFFFF" d="M247.5,461.2h2.3v4.3h0.1c0.3-0.3,0.6-0.5,1-0.7c0.4-0.2,0.8-0.3,1.3-0.3c1.1,0,1.9,0.4,2.5,1.1
		c0.6,0.7,0.9,1.9,0.9,3.4c0,1.6-0.4,2.9-1.2,3.7c-0.8,0.8-1.9,1.3-3.3,1.3c-0.8,0-1.5-0.1-2.1-0.2c-0.6-0.1-1.1-0.3-1.4-0.4
		L247.5,461.2L247.5,461.2z M251.5,466.5c-0.4,0-0.8,0.1-1.1,0.3c-0.3,0.2-0.5,0.5-0.6,1v3.9c0.2,0.1,0.4,0.2,0.6,0.2
		c0.2,0,0.5,0.1,0.7,0.1c0.6,0,1.1-0.2,1.4-0.7c0.3-0.5,0.5-1.2,0.5-2.2C253.1,467.3,252.6,466.5,251.5,466.5z"/>
	<path fill="#FFFFFF" d="M257.2,461.2h2.3v4.3h0.1c0.3-0.3,0.6-0.5,1-0.7c0.4-0.2,0.8-0.3,1.3-0.3c1.1,0,1.9,0.4,2.5,1.1
		c0.6,0.7,0.9,1.9,0.9,3.4c0,1.6-0.4,2.9-1.2,3.7c-0.8,0.8-1.9,1.3-3.3,1.3c-0.8,0-1.5-0.1-2.1-0.2c-0.6-0.1-1.1-0.3-1.4-0.4
		L257.2,461.2L257.2,461.2z M261.1,466.5c-0.4,0-0.8,0.1-1.1,0.3c-0.3,0.2-0.5,0.5-0.6,1v3.9c0.2,0.1,0.4,0.2,0.6,0.2
		s0.5,0.1,0.7,0.1c0.6,0,1.1-0.2,1.4-0.7s0.5-1.2,0.5-2.2C262.7,467.3,262.1,466.5,261.1,466.5z"/>
	<path fill="#FFFFFF" d="M266.6,462.3c0-0.3,0.1-0.6,0.4-0.9c0.3-0.2,0.6-0.4,1.1-0.4s0.8,0.1,1.1,0.4c0.3,0.2,0.4,0.5,0.4,0.9
		c0,0.3-0.1,0.6-0.4,0.9c-0.3,0.2-0.7,0.4-1.1,0.4c-0.4,0-0.8-0.1-1.1-0.4S266.6,462.6,266.6,462.3z M266.9,464.8h2.3v8.9h-2.3
		V464.8z"/>
	<path fill="#FFFFFF" d="M278.7,473c-0.4,0.3-0.8,0.5-1.5,0.7c-0.6,0.2-1.3,0.3-2,0.3c-1.5,0-2.5-0.4-3.2-1.3c-0.7-0.8-1-2-1-3.5
		c0-1.6,0.4-2.8,1.1-3.6c0.7-0.8,1.8-1.2,3.2-1.2c0.5,0,0.9,0.1,1.3,0.2c0.4,0.1,0.8,0.3,1.2,0.6c0.3,0.3,0.6,0.6,0.8,1.1
		c0.2,0.5,0.3,1,0.3,1.7c0,0.3,0,0.5,0,0.8c0,0.3-0.1,0.6-0.1,0.9h-5.4c0,0.8,0.2,1.3,0.6,1.7c0.4,0.4,0.9,0.6,1.7,0.6
		c0.5,0,0.9-0.1,1.3-0.2c0.4-0.1,0.7-0.3,0.9-0.5L278.7,473z M275.3,466.3c-0.6,0-1.1,0.2-1.4,0.5c-0.3,0.4-0.5,0.9-0.5,1.5h3.3
		c0-0.6-0.1-1.1-0.3-1.5C276.2,466.4,275.8,466.3,275.3,466.3z"/>
	<path fill="#FFFFFF" d="M285.1,461.4c0.5-0.1,1.1-0.2,1.7-0.2c0.6-0.1,1.2-0.1,1.8-0.1c0.6,0,1.3,0.1,1.9,0.2s1.2,0.3,1.7,0.6
		c0.5,0.3,0.9,0.7,1.2,1.3c0.3,0.5,0.5,1.3,0.5,2.1s-0.1,1.5-0.4,2s-0.6,1-1.1,1.3c-0.5,0.3-1,0.6-1.6,0.8s-1.2,0.2-1.8,0.2
		c-0.1,0-0.2,0-0.3,0c-0.1,0-0.3,0-0.4,0c-0.1,0-0.3,0-0.4,0c-0.1,0-0.2,0-0.3,0v4.3h-2.5L285.1,461.4L285.1,461.4z M288.8,463.2
		c-0.2,0-0.5,0-0.7,0c-0.2,0-0.4,0-0.5,0.1v4.1c0,0,0.1,0,0.2,0c0.1,0,0.2,0,0.3,0c0.1,0,0.2,0,0.3,0c0.1,0,0.2,0,0.2,0
		c0.3,0,0.6,0,1-0.1c0.4-0.1,0.6-0.2,0.9-0.3c0.3-0.2,0.5-0.4,0.6-0.7c0.1-0.3,0.2-0.7,0.2-1.1s-0.1-0.7-0.2-1
		c-0.1-0.3-0.3-0.5-0.6-0.6c-0.2-0.2-0.5-0.3-0.8-0.3S289.1,463.2,288.8,463.2z"/>
	<path fill="#FFFFFF" d="M294.8,465.3c0.5-0.2,1-0.4,1.7-0.5c0.7-0.1,1.4-0.2,2.1-0.2c0.6,0,1.1,0.1,1.6,0.2c0.4,0.2,0.8,0.4,1,0.6
		s0.4,0.6,0.5,1c0.1,0.4,0.2,0.8,0.2,1.3s0,1.1-0.1,1.6c0,0.5-0.1,1.1-0.1,1.6s0,1,0,1.5s0.1,0.9,0.3,1.4H300l-0.4-1.2h-0.1
		c-0.2,0.4-0.6,0.7-1,1c-0.4,0.3-1,0.4-1.6,0.4c-0.4,0-0.8-0.1-1.1-0.2c-0.3-0.1-0.6-0.3-0.9-0.5c-0.2-0.2-0.4-0.5-0.6-0.8
		c-0.1-0.3-0.2-0.7-0.2-1.1c0-0.6,0.1-1,0.4-1.4c0.2-0.4,0.6-0.7,1.1-0.9c0.5-0.2,1-0.4,1.7-0.5c0.6-0.1,1.4-0.1,2.2-0.1
		c0.1-0.7,0-1.2-0.1-1.4c-0.2-0.3-0.6-0.4-1.2-0.4c-0.5,0-1,0-1.5,0.1c-0.5,0.1-1,0.2-1.3,0.4L294.8,465.3z M297.7,471.9
		c0.5,0,0.8-0.1,1.1-0.3c0.3-0.2,0.5-0.4,0.6-0.7v-1.2c-0.4,0-0.7,0-1.1,0c-0.3,0-0.6,0.1-0.9,0.2s-0.5,0.2-0.6,0.4
		c-0.2,0.2-0.2,0.4-0.2,0.6c0,0.3,0.1,0.6,0.3,0.8C297.1,471.9,297.4,471.9,297.7,471.9z"/>
	<path fill="#FFFFFF" d="M306.6,470H306v3.7h-2.3v-12.5h2.3v7.3l0.5-0.3l2.1-3.6h2.6L309,468l-0.9,0.7l1,0.7l2.4,4.2h-2.7L306.6,470
		z"/>
	<path fill="#FFFFFF" d="M312,471.7l3.5-4.3l0.9-0.8h-4.5v-2h7v2l-3.5,4.3l-0.9,0.7h4.4v2h-7L312,471.7L312,471.7z"/>
	<path fill="#FFFFFF" d="M320.6,465.3c0.5-0.2,1-0.4,1.7-0.5c0.7-0.1,1.4-0.2,2.1-0.2c0.6,0,1.1,0.1,1.6,0.2c0.4,0.2,0.8,0.4,1,0.6
		c0.2,0.2,0.4,0.6,0.5,1c0.1,0.4,0.2,0.8,0.2,1.3s0,1.1-0.1,1.6c0,0.5-0.1,1.1-0.1,1.6s0,1,0,1.5s0.1,0.9,0.3,1.4h-1.9l-0.4-1.2
		h-0.1c-0.2,0.4-0.6,0.7-1,1c-0.4,0.3-1,0.4-1.6,0.4c-0.4,0-0.8-0.1-1.1-0.2c-0.3-0.1-0.6-0.3-0.9-0.5c-0.2-0.2-0.4-0.5-0.6-0.8
		c-0.1-0.3-0.2-0.7-0.2-1.1c0-0.6,0.1-1,0.4-1.4c0.2-0.4,0.6-0.7,1.1-0.9c0.5-0.2,1-0.4,1.7-0.5c0.6-0.1,1.4-0.1,2.2-0.1
		c0.1-0.7,0-1.2-0.1-1.4c-0.2-0.3-0.6-0.4-1.2-0.4c-0.5,0-1,0-1.5,0.1c-0.5,0.1-1,0.2-1.3,0.4L320.6,465.3z M323.6,471.9
		c0.5,0,0.8-0.1,1.1-0.3c0.3-0.2,0.5-0.4,0.6-0.7v-1.2c-0.4,0-0.7,0-1.1,0c-0.3,0-0.6,0.1-0.9,0.2s-0.5,0.2-0.6,0.4
		c-0.2,0.2-0.2,0.4-0.2,0.6c0,0.3,0.1,0.6,0.3,0.8C322.9,471.9,323.2,471.9,323.6,471.9z"/>
	<path fill="#FFFFFF" d="M329.5,461.2h2.3v4.3h0.1c0.3-0.3,0.6-0.5,1-0.7c0.4-0.2,0.8-0.3,1.3-0.3c1.1,0,1.9,0.4,2.5,1.1
		c0.6,0.7,0.9,1.9,0.9,3.4c0,1.6-0.4,2.9-1.2,3.7c-0.8,0.8-1.9,1.3-3.3,1.3c-0.8,0-1.5-0.1-2.1-0.2c-0.6-0.1-1.1-0.3-1.4-0.4
		L329.5,461.2L329.5,461.2z M333.5,466.5c-0.4,0-0.8,0.1-1.1,0.3c-0.3,0.2-0.5,0.5-0.6,1v3.9c0.2,0.1,0.4,0.2,0.6,0.2
		s0.5,0.1,0.7,0.1c0.6,0,1.1-0.2,1.4-0.7s0.5-1.2,0.5-2.2C335.1,467.3,334.5,466.5,333.5,466.5z"/>
	<path fill="#FFFFFF" d="M339.1,465.3c0.5-0.2,1-0.4,1.7-0.5c0.7-0.1,1.4-0.2,2.1-0.2c0.6,0,1.1,0.1,1.6,0.2c0.4,0.2,0.8,0.4,1,0.6
		s0.4,0.6,0.5,1c0.1,0.4,0.2,0.8,0.2,1.3s0,1.1-0.1,1.6c0,0.5-0.1,1.1-0.1,1.6s0,1,0,1.5s0.1,0.9,0.3,1.4h-1.9l-0.4-1.2h-0.1
		c-0.2,0.4-0.6,0.7-1,1c-0.4,0.3-1,0.4-1.6,0.4c-0.4,0-0.8-0.1-1.1-0.2c-0.3-0.1-0.6-0.3-0.9-0.5c-0.2-0.2-0.4-0.5-0.6-0.8
		c-0.1-0.3-0.2-0.7-0.2-1.1c0-0.6,0.1-1,0.4-1.4c0.2-0.4,0.6-0.7,1.1-0.9c0.5-0.2,1-0.4,1.7-0.5c0.6-0.1,1.4-0.1,2.2-0.1
		c0.1-0.7,0-1.2-0.1-1.4c-0.2-0.3-0.6-0.4-1.2-0.4c-0.5,0-1,0-1.5,0.1c-0.5,0.1-1,0.2-1.3,0.4L339.1,465.3z M341.9,471.9
		c0.5,0,0.8-0.1,1.1-0.3c0.3-0.2,0.5-0.4,0.6-0.7v-1.2c-0.4,0-0.7,0-1.1,0c-0.3,0-0.6,0.1-0.9,0.2s-0.5,0.2-0.6,0.4
		c-0.2,0.2-0.2,0.4-0.2,0.6c0,0.3,0.1,0.6,0.3,0.8C341.3,471.9,341.6,471.9,341.9,471.9z"/>
	<path fill="#FFFFFF" d="M353.4,473.7v-5.1c0-0.7-0.1-1.3-0.3-1.6c-0.2-0.3-0.6-0.5-1.1-0.5c-0.4,0-0.8,0.1-1.1,0.4s-0.5,0.6-0.7,1
		v5.8h-2.3v-8.9h1.9l0.3,1.2h0.1c0.3-0.4,0.6-0.7,1.1-1c0.5-0.3,1-0.4,1.8-0.4c0.4,0,0.8,0.1,1.2,0.2c0.3,0.1,0.6,0.3,0.9,0.6
		c0.2,0.3,0.4,0.7,0.5,1.1c0.1,0.4,0.2,1.1,0.2,1.8v5.6L353.4,473.7L353.4,473.7z"/>
</g>
</svg>
