<?xml version="1.0" encoding="utf-8"?>
<!-- Generator: Adobe Illustrator 18.0.0, SVG Export Plug-In . SVG Version: 6.00 Build 0)  -->
<!DOCTYPE svg PUBLIC "-//W3C//DTD SVG 1.1//EN" "http://www.w3.org/Graphics/SVG/1.1/DTD/svg11.dtd">
<svg version="1.1" id="Layer_1" xmlns="http://www.w3.org/2000/svg" xmlns:xlink="http://www.w3.org/1999/xlink" x="0px" y="0px"
	 viewBox="0 0 616.4 169.5" enable-background="new 0 0 616.4 169.5" xml:space="preserve">
<g>
	<g>
		<path fill="#FFFFFF" d="M192,102.4c-1.5-0.1-1.2,1.4-1.4,2.5c-0.9,5.2-3,9.9-6.2,14.1c-2.6,3.4-5.7,2.9-7.4-1
			c-0.9-2.1-1.5-4.3-1.6-6.6c-1.3-22.3-0.2-44.5,1.9-66.7c0.2-1.8,1.1-4.7-1.2-5c-2.5-0.3-1.8,2.8-2.1,4.5c-1.3,8-1.8,16-2.4,24.1
			c-0.1,0.9,0.3,2.9-0.9,2.5c-5.9-1.9-7.4,2.9-9.4,6.2c-3.8,6.2-5.6,13.2-6.9,20.4c-1.1,5.9-0.4,12.1-4,17.4
			c-1.3,1.9-2.2,4.9-5.2,4.2c-2.9-0.7-2.6-3.6-3.1-5.9c-0.1-0.5-0.1-1-0.1-1.4c-0.4-7.5,0.3-14.9,2.7-22.1c0.3-1,1.3-2.4-0.2-3.2
			c-1.1-0.6-1.5,0.9-2.1,1.5c-1.4,1.4-2.9,3-4.9,1.9c-2.1-1.1-1.2-3.2-0.8-4.9c1.1-4.7,1.4-9.5,1-14.3c-0.1-1.4,0-3.5-1.5-3.7
			c-1.9-0.2-2.1,2-2.5,3.4c-1.4,5.2-1.1,10.5-0.7,15.8c0.9,9.7,0.2,19.2-4.5,28c-1.8,3.4-4.4,5.9-8.9,6c0.5-1.1,1-1.8,1.3-2.5
			c4.3-10.8,4.4-21.6-0.6-32.2c-2.1-4.5-5.2-8.3-10.8-8.3c-5.6,0-8.4,4-10.8,8.4c-2,3.6-3,7.6-3.3,11.7c-0.8,8.1-0.2,16.2,4,23.4
			c3.8,6.5,9.4,7.9,15.9,4.2c1-0.6,1.9-0.9,3-0.8c4.8,0.2,8.2-2,10.9-5.8c4.6-6.4,5.7-13.9,6.4-21.4c0.1-1.4,0-2.8,2.1-2.2
			c1.4,0.4,3.6-0.4,2.9,2.6c-0.6,2.8-0.9,5.7-1.2,8.6c-0.5,5.2-0.8,10.3,0.7,15.4c0.6,2,1.7,3.8,4,4.3c2.4,0.5,3.9-1.1,5-2.8
			c1.5-2.3,2.8-4.8,4.2-7.2c0.9,0.8,0.7,1.9,1.1,2.7c1.1,2.7,2.4,5.4,5.7,5.9c3.5,0.5,5.6-1.8,7.2-4.5c1.2-2,2.2-4.2,3.7-7.2
			c1,3.6,1.6,6.4,3,8.9c2.9,5.2,7,5.7,10.9,1.1c4.3-5,6.4-10.9,7.6-17.3C193.1,104.1,193.6,102.5,192,102.4z M113.2,122.6
			c-0.3,1.1-1.6,1.4-2.6,1.7c-3.2,0.9-5.3-0.8-6.9-3.2c-2.2-3.4-3.1-7.3-3.6-11.2c-1.2-8.5-0.2-16.8,3.4-24.6
			c1.4-3.1,3.4-5.8,7.1-6.1c3.3,0.1,4.9,2.2,6.3,4.5c0.7,1,0,1.4-0.8,1.8c-13.6,7.5-15.8,25.1-4.5,35.2
			C112.1,121.2,113.5,121.5,113.2,122.6z M116.9,117.4c-0.7,1.7-1.5,2.3-3.1,1c-5.7-4.4-7.4-10.4-6.9-17.2
			c0.4-5.9,3.1-10.4,8.5-13.3c2-1.1,3.2-0.9,3.7,1.6c0.7,3.7,1.2,7.3,1.3,10.6C120,106.3,119.1,112,116.9,117.4z M170.9,80.9
			c-0.2,3.5-0.3,7-0.5,10.4c-0.3,5.4,0.7,10.8-0.6,16.1c-0.7,2.7-1.6,5.3-3.2,7.6c-0.9,1.3-1.9,2.6-3.7,2.4c-2-0.2-2.8-1.8-3.3-3.4
			c-0.5-1.7-1.1-3.5-1.2-5.2c-0.5-10.3,0.7-20.4,4.9-29.9c1-2.3,2-5.8,5.2-4.9C171.5,74.9,171,78.2,170.9,80.9z"/>
		<path fill="#FFFFFF" d="M78.1,80.3l4.7-14.8c6.2-1,8.8-1.7,13.8-3.5c13.4-5,32.1-18.6,29.9-32.1c-1-5.8-5.4-9.4-11.5-9.4
			c-12.2,0-25.7,14.5-37.8,40.9l-0.9,2h-0.7c-16.7,0-28-7.9-30.3-21.1c-1-6.2,0.2-11.7,3.4-15.5c2.7-3.2,6.5-4.9,11.1-4.9
			c4.5,0,6.6,1.3,8.6,2.6c0.6,0.4,1.2,0.8,1.9,1.1l0.6,0.3c0,0,1.3-0.8,0.8-2c0,0-0.4-0.3-0.4-0.3c-5-3.5-7.5-4.4-11.8-4.4
			c-5.4,0-10.2,2.2-13.5,6.1c-3.8,4.4-5.3,10.8-4.2,17.5c2.3,14,15.2,23.1,33.6,23.7l-4.8,13.4c-8.4,23.6-15,35.7-22.1,40.2
			l-2.7-0.7c-1.8-0.5-3.4-1-4.9-1.4c-5.9-1.7-9.8-2.8-17-2.8c-6.6,0-11,1.1-12.9,3.3c-0.8,1-1.1,2.1-0.9,3.3
			c0.8,4.5,7.2,7.1,17.7,7.1c11.3,0,18.5-3.7,21.1-5.1l7.5,2.6c5.6,2,9.8,2.9,14.5,2.9c12.9,0,23.9-5.9,28.6-15.4l0.1-0.1l0-0.2
			c0-0.3,0-0.6,0.1-0.9c0.1-0.7,0.3-1.7-0.9-2.1l-0.5-0.2l-0.2,0.5c-3.9,8.9-13.8,14.7-25.1,14.7c-7.1,0-16.4-2.9-19.9-4.1
			C56.9,118.8,69.5,108.1,78.1,80.3z M83.4,62.3c1.9-6.3,5-14.8,9.2-21c7.5-12.3,14.8-18,22.8-18c4,0,6.3,2,7,6
			c1.1,6.7-4.9,15.7-15.6,23.5c-9.3,6.7-17.1,8.3-21.7,9.2C84.5,62.1,83.9,62.2,83.4,62.3z M45.3,122.2c-5.2,2.7-11.2,4.1-17.9,4.1
			c-8.4,0-12.8-1.5-13.3-4.6c-0.1-0.6,0-1.2,0.5-1.6c1.2-1.4,4.5-2.3,9.1-2.3C30.6,117.7,37.9,119.3,45.3,122.2z"/>
	</g>
	<g>
		<path fill="#FFFFFF" d="M418.2,46.1c-1.8,0-1.9,1.9-2.3,3.2c-1.2,4.4-1.6,9-2,13.5c-1.3,12.5-0.4,25.1-1.5,37.5
			c-0.5,5.2-1.1,10.4-3.6,15.1c-0.7,1.4-1.7,2.7-3.5,2.7c-2,0-3.1-1.4-3.7-3c-1.4-3.6-1.7-7.3-1.2-11.2c0.7-6.2,2.2-12.4,1.8-18.7
			c-0.2-2.2,0.3-6-1.9-6c-2.7,0-2.3,3.8-2.6,6.2c-0.7,6.2-0.7,12.5-0.6,18.8c0,6.7-2.9,12.2-7.9,16.3c-8.5,7.2-19.6,3.5-22-7.3
			c-2.3-10.2-0.3-19.9,5-28.9c0.7-1.2,1.7-2.3,2.8-3.3c4.1-3.6,8.1-2.4,9.3,2.9c1,4.3,0.8,8.6-0.7,12.7c-0.5,1.3-1.2,2.6-2.5,3.4
			c-0.9,0.5-3,0.2-2.2,1.8c0.6,1.2,2.4,0.6,3.6,0.2c2-0.8,3.5-2.2,4.5-4.2c1.7-3.4,2.1-6.9,1.7-10.6c-0.5-4.3-1.7-8.4-6.3-10
			c-4.5-1.6-8.1,0.8-11.2,3.8c-1.5,1.4-2.7,3.2-3.8,4.9c-4,6.3-6.1,13.3-5.9,20.8c0.1,5.3-2.2,9.3-5,13.2c-1,1.4-2.2,2.7-4.2,2.2
			c-2-0.5-2.4-2.3-2.8-3.9c-0.4-1.8-0.6-3.6-0.6-5.4c-0.1-9.3,0.3-18.5,1.6-27.7c0.8-6.1,2-12.1,3.4-18c0.5-1.9,0.2-3.8-1.9-4.6
			c-2.1-0.9-3.2,0.8-3.9,2.3c-1.3,2.4-2.5,4.9-3.5,7.4c-3.2,8.1-5.1,16.6-7.7,25.9c0.3-9.9,2.1-18.8,2-27.8c0-1.8,0.6-4.7-1.7-4.9
			c-1.7-0.2-1.9,2.7-2.2,4.5c-1.9,11.3-1.4,22.6-1.4,34c0,5.3-2.3,9.8-5.3,14c-0.8,1.2-2,2.3-3.6,1.8c-1.7-0.5-1.9-2.1-2-3.5
			c-0.3-4.4-0.1-8.9,0.2-13.3c0.7-8,2.4-16,1.3-24.2c-0.6-4.6-3.1-7.6-6.6-8.3c-6.2-1.3-15.3,8.9-13.4,15c0.3,1,0.8,1.7,1.8,1.8
			c1.1,0.1,1.7-0.6,2-1.5c0.3-1,0.3-2,0.4-3.1c0.3-3.5,1.6-6.6,4.3-8.9c2.9-2.4,6.2-1.5,7.4,2.1c1,2.8,0.7,5.6,0.3,8.5
			c-0.2,1.1-0.6,1.4-1.6,1.8c-10.3,4-15.2,12.6-18.2,22.5c-1.7,5.4-2,11.1-0.1,16.6c1.6,4.6,5.1,5.4,8.9,2.3
			c1.8-1.5,3.2-3.5,4.4-5.4c1.3-2.1,2.5-4.3,3.9-6.8c0.6,2.1,1,3.8,1.6,5.3c0.9,2.2,2.1,4.3,4.8,4.7c2.8,0.4,4.3-1.5,5.6-3.5
			c1.2-1.8,2.3-3.7,3.9-6.4c0,4.1-0.1,7.3,0,10.4c0,1.1,0.4,2.5,1.9,2.5c1.4-0.1,1.3-1.4,1.4-2.4c0.1-1,0.1-2.1,0.1-3.1
			c-0.2-8.3,0.7-16.4,2.6-24.4c1.9-7.7,3.5-15.4,6.9-23.7c-0.6,6.8-1.1,12.5-1.6,18.2c-0.6,5.8-0.1,11.5,0.2,17.2
			c0.3,4.3,0.8,8.6,2.5,12.6c2,4.9,5.3,5.5,8.9,1.7c2.4-2.4,3.8-5.5,5.8-9c3.3,8.2,9.3,11.5,17.5,11.6c8.6,0,13.5-5.4,17.9-12.7
			c0.7,3.1,1.3,5.4,2.6,7.6c2.7,4.6,6.2,4.7,8.8,0c1.4-2.4,2.3-5,3.8-8.3c0.8,8.5,0.7,16.2,0.4,23.8c-0.2,5-0.5,9.9-2.2,14.6
			c-2.3,6.3-6,8.1-12.4,6c-1.9-0.6-3.4,0-4.4,1.6c-1,1.6-1.3,3.2,0.9,4.2c2.1,0.7,4.2,0.5,6.3,0.3c5.9-0.4,7.6-0.9,10.3-4.1
			c2.5-3,4.3-6.9,4.8-10.7c1.1-8.2,1.4-13.1,1.3-22.1c-0.1-4.4-0.9-8.8-1.1-13.2c-1-17.6,3.1-34.7,4.3-52.1
			C421,61.4,421.4,46.1,418.2,46.1z M312.5,116.9c-1.6,2.1-3.2,5.2-6.4,4.1c-3.4-1.1-2.9-4.6-2.8-7.4c0.4-8.2,3.7-15,9.4-20.8
			c1.8-1.9,4-3.2,7-4C320.1,99.3,319,108.8,312.5,116.9z"/>
		<path fill="#FFFFFF" d="M324,29.8c-0.3-1.8-1.8-3-3.9-3c0,0,0,0,0,0c-3.6,0.1-9,1.8-13.5,4.4c-2.6,1.4-4.2,2.8-7,5.2l-1.7,1.4
			c-5.9-1.1-8.4-2.9-14.6-10.1c-9.5-10.8-15-15.6-21.7-19.1c-7.7-3.9-16.7-6-25.3-5.8C224.5,3,214,7.5,207.5,15.3
			c-5.3,6.4-7.5,14.5-6.2,22.8c2.5,16,18.9,28.9,36.5,28.9l0.6,0c8.4-0.2,15.3-2.9,19.4-7.8c3.1-3.6,4.2-8.2,3.5-13.1
			c-1.5-9.4-10.7-16.7-20.9-16.7l-0.4,0c-5.8,0.1-9.9,2.7-11.7,7.4c-0.1,0.2,0,0.5,0.2,0.6l0.7,0.5c0.1,0.1,0.3,0.1,0.5,0.1
			c0.2,0,0.3-0.1,0.4-0.3c2.3-4.2,5.3-6,9.9-6.1l0.3,0c8.3,0,15.3,6.2,16.6,14.8c0.7,4.6-0.3,8.7-2.9,11.9
			c-3.3,3.9-8.8,6.1-15.6,6.2l-0.6,0c-15.7,0-30.5-12.4-32.9-27.7c-1.2-7.4,0.8-14.6,5.6-20.3c5.9-7,15.5-11.2,26.3-11.4l0.7,0
			c9.1,0,18,3.2,25.1,9c3.2,2.6,7,6.3,11.2,11.1c9.2,10.4,13.1,13.2,21.5,14.9c-9.1,9-16.9,21.3-22.7,35.5
			c-13.4,0.4-20.7,2.2-28.8,7c-4.5,2.8-8.4,6.1-11.5,9.5c-3.4-1-5-1.3-8.5-1.2c-8.7,0.2-16.9,3.9-22.1,10.1
			c-3.9,4.7-5.6,10.2-4.7,15.6c1.8,11.2,12.3,18.2,27.5,18.2c0.3,0,0.6,0,0.9,0c11.7-0.2,22.6-4.8,32.4-13.8
			c8.9-7.9,15.1-18,20.4-32.8l2.6-7.4l0.7-1.7c0.1,0,0.2,0,0.3,0c1.7,0.1,6.1,0.5,9.6,0.5c1,0,1.9,0,2.7-0.1l-0.1,0.6
			c-1.7,9.7-3.4,12.9-6.4,16.3c-0.2,0.2-0.2,0.6,0,0.8l0.9,0.8c0.1,0.1,0.3,0.1,0.4,0.2c0.2,0,0.3-0.1,0.4-0.2l0.2-0.3
			c1.9-2.3,2.8-3.3,4.4-6.1c1.2-2.2,1.7-3.7,2.3-5.8c0.4-1.4,1-3.2,1.9-5.6l0.6-1.5c5.4-3.8,7.8-7.2,7.3-10.3
			c-0.3-1.8-1.4-2.9-3-2.9c-3.6,0.1-6.4,3.5-8.3,10.3c-1.3,0.2-4.6,0.3-8,0.3c-1.6,0-3.1,0-4.2-0.1c1.5-4.3,3.2-8.6,6.2-15.7
			c4.1-9.6,6.2-13.4,9.1-16.8c0.3-0.4,0.6-0.8,1-1.2c0.4-0.5,0.9-1,1.3-1.5c1.7,0.1,2.4,0.1,3.4,0.1c9.1-0.2,16.3-4,19.2-7.5
			C323.7,32.1,324.2,30.9,324,29.8z M318.8,28.8v0.6c0.8,0,1.2,0.2,1.3,0.6c0,0.2-0.4,1.3-1.7,2.7c-1.8,1.9-6.1,5.2-14.7,5.3l-1,0
			c4.7-4.7,11.8-8.5,16-8.6L318.8,28.8L318.8,28.8z M224.5,132.2c-12.7,0-21.8-5.9-23.2-15c-0.8-5.2,0.8-10.4,4.4-14.8
			c4.5-5.3,11.5-8.6,18.8-8.7l0.4,0c1.7,0,2.8,0.2,5,0.6l0.5,0.1c-4.7,6.5-6.4,11.8-5.6,17.1c0.8,5.1,4,8.5,8.1,8.5h0
			c3-0.1,5.9-1.7,7.8-4.6c2.4-3.3,3.4-7.4,2.8-11.2c-0.7-4.7-3.3-8.1-8.2-10.6c9.2-9.3,20.5-14.3,32.8-14.6c0.3,0,0.7,0,1.1,0
			c0.7,0,1.6,0,2.6,0.1l-6,17.5c-7.8,23-21.9,35.4-40.5,35.7L224.5,132.2z M236.3,114.8c-1,1.2-2.2,1.8-3.5,1.8
			c-2.4,0-4.3-2.1-4.8-5.5c-0.8-4.8,0.7-9.1,5.3-15.4c3.2,2,4.6,4,5.2,7.9C239.1,108.1,238.3,112.3,236.3,114.8z"/>
	</g>
	<path fill="#FFFFFF" d="M593,91c-1.1-1.8-2.1-3.6-3-5.5c-0.9-1.8-1.6-3.6-1.6-5.6c0-2.7,0.3-5.5,3.6-6.3c3.3-0.7,4.8,1.5,5.9,4.1
		c1.1,2.5,0.9,5.2,1.3,7.9c0.2,1.6,0.8,3,2.8,2.9c1.9-0.1,2.1-1.7,2.1-3.1c-0.2-5.2-2-9.8-6.5-12.8c-4.6-3.2-10.3-1.1-12,4.2
		c-1,3.1-0.7,6.2,0.3,9.2c1.7,5.3,4.5,10.1,7.2,15c2.9,5.1,6.1,10.1,8,15.8c1.4,4.2,0.7,7.9-1.7,9.2c-2.4,1.4-6.1-0.2-8.9-3.8
		c-4.2-5.4-4.7-11.6-4-18.1c0.1-0.8,0.4-3.2-0.7-2.2c-1.8,2.6-2.3,5.6-3.5,8.4c-1.9,4.2-3.7,8.5-6.9,12c-2.6,2.8-4.8,2.4-6.4-1.1
		c-0.8-1.8-1.2-3.7-1.5-5.7c-1.5-11.5-0.9-23.1-0.7-34.7c0.1-8.7,0.6-9,9.2-7c1.3,0.3,2.9,1.1,3.4-0.9c0.5-1.9-1-2.5-2.5-3.1
		c-2.5-0.9-5-0.7-7.6-0.5c-1.5,0.1-2-0.2-1.8-1.9c0.5-4.5,1-9,1.3-13.5c0.3-4,1.7-11.9,0.3-12.2c-0.8,0-1.2,2.2-1.5,3.3
		c-1.9,7.4-3.1,15-3.9,22.6c-0.2,2-0.8,3-2.7,3.9c-3.4,1.6-6.1,3.9-6.6,7.9c-0.1,0.8-0.3,1.8,0.8,2c1,0.2,1.4-0.6,1.5-1.5
		c0.5-3.5,2.9-4.9,6.2-5.9c-0.9,9.2-1.4,18.1-1.1,27c0.2,6.6-2.8,12-6.4,17c-2,2.9-4.4,2.3-5.5-1.1c-0.3-1-0.5-2-0.6-3
		c-0.7-9-0.1-18.1,0.9-27.1c0.6-5.3,1.6-10.5,2.8-15.7c0.4-1.8,0.5-3.6-1.5-4.5c-2.3-1-3.1,1.1-3.9,2.5c-1.6,2.6-2.5,5.4-3.5,8.3
		c-2.4,6.5-3.7,13.3-5.8,20.8c0.3-8.9,1.8-16.8,1.6-24.8c0-1.5,0.3-4-1.4-4.1c-1.8-0.1-1.8,2.3-2,3.8c-1.6,9.7-1.2,19.4-1,29.1
		c0.1,4.8-1.6,8.8-3.9,12.7c-0.8,1.4-1.8,3.1-3.7,2.6c-2.1-0.5-2-2.6-2.1-4.3c-0.4-5.8,0.4-11.6,0.9-17.3c0.4-5.1,1.2-10.2,0.2-15.2
		c-0.6-3-2-5.5-5.1-6.5c-3.1-1.1-5.7,0.2-7.9,2.3c-2.5,2.4-4.2,5.2-4.7,8.7c-0.2,1.5-0.4,3.5,1.5,3.7c2,0.3,2.2-1.6,2.2-3.2
		c0-3,1-5.7,2.9-8c1.2-1.4,2.7-2.3,4.6-1.9c2,0.4,2.7,2,3.1,3.7c0.6,2.2,0.4,4.4,0.1,6.6c-0.1,0.9-0.4,1.3-1.3,1.8
		c-12.3,6.2-19.2,19.6-16.8,32.7c0.4,2.3,1.1,4.7,3.6,5.5c2.8,0.9,4.6-0.9,6.3-2.8c2.5-2.7,3.9-6.1,6-9.6c0.6,2,1,3.7,1.7,5.2
		c2.1,4.5,5.8,4.9,8.8,0.9c1.2-1.7,2.2-3.6,3.7-6.1c0,3.3,0,5.8,0.1,8.4c0,1.3,0.1,3,1.7,3c1.8,0,1.3-1.8,1.4-3
		c0.3-5.4-0.2-10.9,0.8-16.3c1.7-9.4,3.7-18.8,7.3-28.7c-0.5,6.6-1.1,12.2-1.4,17.8c-0.3,8-0.1,16,2.2,23.8c0.6,2.1,1.5,4.4,4,4.8
		c2.5,0.4,4-1.5,5.3-3.2c2.3-2.8,3.6-6.2,5.4-9.7c0.6,2.8,1.1,5.2,1.6,7.5c0.5,2.4,1.3,4.7,2.5,6.8c2.7,4.6,6.1,5.1,9.7,1.2
		c1-1.1,2-2.3,2.7-3.6c1.7-2.9,3.2-5.8,4.9-8.9c0.9,4.1,2.4,7.5,4.9,10.5c5.8,7.1,14.1,6.7,16.7-2.2c0-0.1,1.4-3.8,0.3-7.8
		C602.9,105.6,597.7,98.4,593,91z M517.6,114.8c-0.9,1.2-1.9,2.4-3,3.3c-2,1.7-3.9,1.2-5-1.2c-3.6-7.9,5.2-24.7,13.8-26.4
		C523.9,99.2,523,107.6,517.6,114.8z"/>
	<path fill="#FFFFFF" d="M540.5,20.1c-3.9-1.4-6.3-1.9-8.7-1.9c-0.7,0-1.4,0-2.1,0.1c-4.2,0.5-8,1.8-12.1,4.4
		c-4-3.1-9.7-4.7-16.4-4.7c-1.6,0-3.2,0.1-4.8,0.3c-2.9,0.3-10.8,1.6-19.8,6.7C465,31.6,455.8,41.8,449,55.5
		c-6.6,13.4-8.3,25.3-5.7,38.6c0.2,1.2,0.5,2.4,1,4.8l-1.5,0.8c-13.8,7.7-19.9,15-18.4,22.2c1.2,6.1,5.9,9.6,12.9,9.6
		c0.8,0,1.7,0,2.6-0.1c6.4-0.7,13.6-4.1,20.3-9.7c6.7,4,12,6.8,18.5,6.8c0.9,0,1.8,0,2.7-0.1c5.6-0.6,9.9-2.7,12.3-5.9
		c1.9-2.6,2.5-5.9,1.8-9.5c-1.3-6.7-5.9-11.6-14.8-15.8c3.6-6,7-12.8,10.6-20.7c2.2,0.5,3.8,0.7,5.6,0.7c1,0,2.2-0.1,3.5-0.2
		c8.2-0.9,15.6-5.3,20.8-12.3c5.5-7.5,7.7-17.1,5.9-26.1c-1.2-6.1-3.6-10.5-7.8-14.1c3.3-2.5,7.1-4,11.3-4.4
		c0.8-0.1,1.6-0.1,2.3-0.1c2.3,0,4.4,0.4,7.1,1.4c0,0,0.1,0,0.1,0c0,0,0.1,0,0.1-0.1l0.3-0.9C540.6,20.2,540.6,20.1,540.5,20.1z
		 M462.6,119.4c5.9-5.3,9.1-8.9,13.9-15.7l0.5-0.6c1.1-1.4,1.8-2.4,3.1-4.5c6.2,2.5,10.8,7.8,12,13.7c0.8,3.9,0.2,7.3-1.6,9.8
		c-1.8,2.5-4.9,4-9,4.5c-0.9,0.1-1.8,0.1-2.6,0.1h0c-5.6,0-11.1-2-17.2-6.4L462.6,119.4z M458.3,120c-7.1,6.1-12.3,8.8-18.4,9.5
		c-0.8,0.1-1.6,0.1-2.4,0.1h0c-5.8,0-9.4-2.5-10.3-7.1c-1.4-7.3,6.6-17.2,17.6-21.7C447.5,108.6,451.8,114.7,458.3,120z M461.9,96.2
		L461.9,96.2c0,0.1,0.1,0.1,0.1,0.1c1.7-0.2,3.1-0.3,4.5-0.3c2.7,0,5.1,0.3,8.5,1.2l-0.8,1.6c-4.4,8.6-9.2,15.3-14.4,19.9
		c-0.1,0.1-0.1,0.1-0.2,0.2c-0.1-0.1-0.2-0.2-0.4-0.3c-2.5-2.1-8.2-7.2-11.9-18.8C452.1,97.9,456.6,96.8,461.9,96.2z M486,72.3
		c-5.1-2.3-7.9-6-9-11.5c-1.3-6.5,0.5-12.6,4.7-16.2c0,0,0.1-0.1,0-0.2l-0.5-0.8c0,0-0.1-0.1-0.1-0.1c0,0-0.1,0-0.1,0
		c-5,4.3-7,10.7-5.7,17.5c1.2,6.1,4.3,10,10.2,12.9l0.1,0.1c-3.2,8.6-6.2,15.5-9.6,21.8c-3.2-0.9-5.7-1.3-8.6-1.3
		c-1.8,0-3.8,0.1-6.8,0.5c-5.2,0.6-8.6,1.2-13.7,3.1c-0.2-0.9-0.4-1.5-0.6-2.1c-0.2-0.7-0.4-1.2-0.5-1.9
		c-2.4-12.3-0.8-23.8,5.4-37.2c6.3-13.6,15.3-23.8,26.8-30.4c8.9-5.1,16.7-6.4,19.6-6.7c1.2-0.1,2.4-0.2,3.6-0.2
		c5.4,0,10.2,1.5,14.4,4.6c-14.3,10.7-22.7,29.2-26.4,39.3L486,72.3z M499.9,75.2c-0.7,0.1-1.4,0.1-2,0.1c-1.7,0-3.4-0.3-5.8-0.7
		c0.6-1.8,7.3-21.1,11.1-29.3c3.2-6.8,7.2-13.7,13.9-19c2.6,3.2,3.5,4.8,4.4,9.3c1.7,8.7,0.6,22-5.8,30.8c-3.9,5.2-9.1,8.3-15.6,9
		l0,0C500,75.2,500,75.2,499.9,75.2C499.9,75.2,499.9,75.2,499.9,75.2z"/>
</g>
<g>
	<path fill="#FFFFFF" d="M79.2,159.5h-4.6l-1.3,3.5h-1.5l4.8-12.8h0.7L82,163h-1.6L79.2,159.5z M75,158.2h3.7l-1.4-3.8l-0.4-1.9h0
		l-0.4,1.9L75,158.2z"/>
	<path fill="#FFFFFF" d="M93.8,162.4c-0.4,0.3-0.8,0.5-1.3,0.6c-0.5,0.1-1,0.2-1.5,0.2c-0.7,0-1.3-0.1-1.8-0.3
		c-0.5-0.2-0.9-0.5-1.2-1c-0.3-0.4-0.5-0.9-0.7-1.5s-0.2-1.2-0.2-1.9c0-1.5,0.3-2.7,1-3.5c0.7-0.8,1.6-1.2,2.9-1.2
		c0.6,0,1.1,0,1.5,0.1s0.8,0.2,1.1,0.4l-0.4,1.2c-0.3-0.2-0.6-0.3-0.9-0.4c-0.3-0.1-0.7-0.1-1.1-0.1c-1.7,0-2.6,1.2-2.6,3.5
		c0,0.5,0,0.9,0.1,1.3c0.1,0.4,0.2,0.8,0.4,1.1c0.2,0.3,0.5,0.6,0.8,0.8c0.3,0.2,0.8,0.3,1.3,0.3c0.4,0,0.8-0.1,1.2-0.2
		c0.3-0.1,0.6-0.3,0.8-0.4L93.8,162.4z"/>
	<path fill="#FFFFFF" d="M101.5,163v-5.1c0-0.5,0-0.9-0.1-1.2s-0.2-0.6-0.3-0.9s-0.3-0.4-0.6-0.5c-0.2-0.1-0.6-0.2-1-0.2
		c-0.6,0-1.1,0.2-1.5,0.5c-0.5,0.4-0.8,0.8-0.9,1.4v6h-1.4v-12.6h1.4v4.6h0.1c0.3-0.4,0.7-0.7,1.1-0.9s1-0.3,1.6-0.3
		c0.5,0,0.9,0.1,1.3,0.2c0.4,0.1,0.7,0.3,0.9,0.6c0.2,0.3,0.4,0.7,0.5,1.2c0.1,0.5,0.2,1.1,0.2,1.8v5.4H101.5z"/>
	<path fill="#FFFFFF" d="M105.6,151.3c0-0.3,0.1-0.5,0.3-0.7c0.2-0.2,0.4-0.3,0.7-0.3s0.5,0.1,0.7,0.3c0.2,0.2,0.3,0.4,0.3,0.7
		s-0.1,0.5-0.3,0.7c-0.2,0.2-0.4,0.3-0.7,0.3s-0.5-0.1-0.7-0.3C105.7,151.8,105.6,151.6,105.6,151.3z M105.9,154h1.4v9h-1.4V154z"/>
	<path fill="#FFFFFF" d="M112,160.8c0,0.4,0.1,0.7,0.2,0.9s0.3,0.3,0.6,0.3c0.2,0,0.3,0,0.5,0c0.2,0,0.4-0.1,0.6-0.2l0.2,1.1
		c-0.2,0.1-0.5,0.2-0.8,0.2s-0.6,0.1-0.9,0.1c-0.5,0-1-0.2-1.3-0.5c-0.3-0.3-0.5-0.8-0.5-1.6v-10.8h1.4V160.8z"/>
	<path fill="#FFFFFF" d="M122.6,159.9c0,0.6,0,1.2,0,1.7c0,0.5,0.1,1,0.2,1.5h-1l-0.4-1.3h-0.1c-0.2,0.4-0.6,0.8-1,1
		c-0.5,0.3-1,0.4-1.6,0.4c-1.2,0-2.1-0.4-2.7-1.1s-0.9-1.9-0.9-3.5c0-1.5,0.4-2.7,1.1-3.5c0.7-0.8,1.7-1.2,3-1.2
		c0.4,0,0.8,0,1.1,0.1c0.3,0,0.5,0.1,0.8,0.2v-3.7h1.4V159.9z M118.9,162c0.6,0,1.1-0.2,1.5-0.5c0.4-0.3,0.6-0.8,0.7-1.4v-4.5
		c-0.2-0.2-0.5-0.3-0.7-0.4c-0.3-0.1-0.6-0.1-1.1-0.1c-0.8,0-1.5,0.3-1.9,0.8c-0.5,0.5-0.7,1.4-0.7,2.6c0,0.5,0,0.9,0.1,1.4
		c0.1,0.4,0.2,0.8,0.4,1.1c0.2,0.3,0.4,0.5,0.7,0.7C118.2,161.9,118.5,162,118.9,162z"/>
	<path fill="#FFFFFF" d="M129.6,155.4c-0.4-0.1-0.7-0.2-1-0.2c-0.5,0-0.9,0.1-1.2,0.4c-0.3,0.3-0.5,0.6-0.6,1.1v6.3h-1.4v-9h1
		l0.3,1.1h0.1c0.2-0.4,0.5-0.7,0.8-0.9c0.3-0.2,0.7-0.3,1.2-0.3c0.3,0,0.7,0.1,1.2,0.2L129.6,155.4z"/>
	<path fill="#FFFFFF" d="M138,162.3c-0.4,0.3-0.8,0.5-1.4,0.7c-0.5,0.2-1.1,0.3-1.7,0.3c-0.7,0-1.3-0.1-1.8-0.3
		c-0.5-0.2-0.9-0.5-1.2-1c-0.3-0.4-0.6-0.9-0.7-1.5c-0.2-0.6-0.2-1.2-0.2-1.9c0-1.5,0.3-2.7,1-3.5c0.7-0.8,1.7-1.2,2.9-1.2
		c0.4,0,0.8,0,1.2,0.1c0.4,0.1,0.8,0.3,1.1,0.5c0.3,0.3,0.6,0.6,0.8,1.1c0.2,0.5,0.3,1.1,0.3,1.8c0,0.4,0,0.8-0.1,1.3h-5.8
		c0,0.5,0.1,1,0.2,1.4c0.1,0.4,0.3,0.8,0.5,1c0.2,0.3,0.5,0.5,0.9,0.6c0.4,0.2,0.8,0.2,1.3,0.2c0.4,0,0.8-0.1,1.2-0.2
		c0.4-0.1,0.7-0.3,0.9-0.5L138,162.3z M134.9,155.1c-0.7,0-1.3,0.2-1.7,0.6c-0.4,0.4-0.7,1-0.8,1.9h4.5c0-0.9-0.2-1.6-0.5-1.9
		C136.1,155.3,135.6,155.1,134.9,155.1z"/>
	<path fill="#FFFFFF" d="M146.4,163v-5.1c0-0.9-0.1-1.6-0.4-2.1c-0.3-0.5-0.8-0.7-1.5-0.7c-0.6,0-1.2,0.2-1.6,0.5
		c-0.4,0.3-0.7,0.8-0.9,1.3v6.2h-1.4v-9h1l0.3,1.1h0.1c0.3-0.4,0.7-0.7,1.2-0.9c0.5-0.2,1.1-0.4,1.7-0.4c0.5,0,0.9,0.1,1.3,0.2
		c0.4,0.1,0.7,0.3,0.9,0.6s0.4,0.7,0.6,1.2c0.1,0.5,0.2,1.1,0.2,1.8v5.4H146.4z"/>
	<path fill="#FFFFFF" d="M149.8,151.2c0-0.3,0.1-0.5,0.3-0.6c0.2-0.2,0.4-0.2,0.7-0.2c0.3,0,0.6,0.1,0.8,0.3
		c0.2,0.2,0.3,0.5,0.3,0.9c0,0.4-0.1,0.7-0.2,1c-0.1,0.3-0.3,0.5-0.4,0.7c-0.2,0.2-0.3,0.4-0.5,0.5c-0.2,0.1-0.3,0.2-0.5,0.3
		l-0.5-0.6c0.3-0.1,0.5-0.3,0.6-0.5c0.2-0.2,0.2-0.5,0.2-0.8c0,0-0.1,0-0.2,0c-0.2,0-0.4-0.1-0.5-0.2
		C149.9,151.6,149.8,151.4,149.8,151.2z"/>
	<path fill="#FFFFFF" d="M156.8,160.6c0-0.4-0.1-0.6-0.3-0.8s-0.5-0.4-0.8-0.5c-0.3-0.1-0.7-0.3-1-0.4c-0.4-0.1-0.7-0.3-1-0.5
		c-0.3-0.2-0.6-0.5-0.8-0.8c-0.2-0.3-0.3-0.7-0.3-1.3c0-0.9,0.2-1.5,0.7-1.9c0.5-0.4,1.2-0.6,2.1-0.6c0.6,0,1.2,0.1,1.6,0.2
		c0.4,0.1,0.8,0.2,1.1,0.4l-0.3,1.2c-0.3-0.1-0.6-0.2-1-0.4c-0.4-0.1-0.8-0.2-1.3-0.2c-0.5,0-0.9,0.1-1.2,0.3s-0.4,0.5-0.4,0.9
		c0,0.3,0.1,0.6,0.3,0.7c0.2,0.2,0.5,0.3,0.8,0.5c0.3,0.1,0.7,0.3,1,0.4c0.4,0.1,0.7,0.3,1,0.5c0.3,0.2,0.6,0.5,0.8,0.8
		c0.2,0.3,0.3,0.8,0.3,1.3c0,0.4-0.1,0.7-0.2,1.1s-0.3,0.6-0.6,0.9c-0.3,0.2-0.6,0.4-1,0.6c-0.4,0.1-0.8,0.2-1.4,0.2
		c-0.7,0-1.3-0.1-1.7-0.2c-0.5-0.1-0.9-0.3-1.2-0.5l0.4-1.2c0.3,0.2,0.6,0.3,1.1,0.4c0.4,0.1,0.9,0.2,1.4,0.2c0.5,0,0.9-0.1,1.3-0.3
		C156.6,161.5,156.8,161.1,156.8,160.6z"/>
	<path fill="#FFFFFF" d="M165.2,150.4h1.4v4.5h0.1c0.3-0.3,0.6-0.6,1.1-0.8c0.4-0.2,0.9-0.3,1.4-0.3c1.2,0,2,0.4,2.6,1.1
		c0.6,0.7,0.9,1.9,0.9,3.5c0,1.6-0.4,2.8-1.2,3.6c-0.8,0.8-1.8,1.2-3.2,1.2c-0.7,0-1.3-0.1-1.8-0.2c-0.5-0.1-1-0.3-1.2-0.5V150.4z
		 M168.9,155.1c-0.6,0-1.1,0.2-1.5,0.5c-0.4,0.3-0.6,0.8-0.8,1.4v4.5c0.2,0.1,0.5,0.2,0.8,0.3c0.3,0.1,0.7,0.1,1,0.1
		c0.8,0,1.5-0.3,2-0.9c0.5-0.6,0.7-1.5,0.7-2.7c0-0.5,0-0.9-0.1-1.3c-0.1-0.4-0.2-0.8-0.4-1c-0.2-0.3-0.4-0.5-0.7-0.7
		C169.7,155.2,169.3,155.1,168.9,155.1z"/>
	<path fill="#FFFFFF" d="M174.4,158.5c0-1.5,0.3-2.7,1-3.5c0.7-0.8,1.7-1.2,2.9-1.2c0.7,0,1.3,0.1,1.8,0.3c0.5,0.2,0.9,0.5,1.2,1
		c0.3,0.4,0.6,0.9,0.7,1.5c0.2,0.6,0.2,1.2,0.2,1.9c0,1.5-0.3,2.7-1,3.5c-0.7,0.8-1.7,1.2-2.9,1.2c-0.7,0-1.3-0.1-1.8-0.3
		c-0.5-0.2-0.9-0.5-1.2-1c-0.3-0.4-0.6-0.9-0.7-1.5C174.5,159.9,174.4,159.2,174.4,158.5z M175.9,158.5c0,0.5,0,0.9,0.1,1.3
		c0.1,0.4,0.2,0.8,0.4,1.1c0.2,0.3,0.4,0.6,0.8,0.8s0.7,0.3,1.1,0.3c1.6,0,2.4-1.1,2.4-3.5c0-0.5,0-0.9-0.1-1.3
		c-0.1-0.4-0.2-0.8-0.4-1.1c-0.2-0.3-0.4-0.6-0.8-0.7s-0.7-0.3-1.1-0.3C176.7,155.1,175.9,156.2,175.9,158.5z"/>
	<path fill="#FFFFFF" d="M184.1,158.5c0-1.5,0.3-2.7,1-3.5c0.7-0.8,1.7-1.2,2.9-1.2c0.7,0,1.3,0.1,1.8,0.3c0.5,0.2,0.9,0.5,1.2,1
		c0.3,0.4,0.6,0.9,0.7,1.5c0.2,0.6,0.2,1.2,0.2,1.9c0,1.5-0.3,2.7-1,3.5c-0.7,0.8-1.7,1.2-2.9,1.2c-0.7,0-1.3-0.1-1.8-0.3
		c-0.5-0.2-0.9-0.5-1.2-1c-0.3-0.4-0.6-0.9-0.7-1.5C184.2,159.9,184.1,159.2,184.1,158.5z M185.6,158.5c0,0.5,0,0.9,0.1,1.3
		c0.1,0.4,0.2,0.8,0.4,1.1c0.2,0.3,0.4,0.6,0.8,0.8s0.7,0.3,1.1,0.3c1.6,0,2.4-1.1,2.4-3.5c0-0.5,0-0.9-0.1-1.3
		c-0.1-0.4-0.2-0.8-0.4-1.1c-0.2-0.3-0.4-0.6-0.8-0.7s-0.7-0.3-1.1-0.3C186.4,155.1,185.6,156.2,185.6,158.5z"/>
	<path fill="#FFFFFF" d="M196.5,159h-0.8v4h-1.4v-12.6h1.4v7.7l0.7-0.3l2.8-3.8h1.7l-2.8,3.6l-0.7,0.6l0.9,0.7l3,4.1h-1.8L196.5,159
		z"/>
	<path fill="#FFFFFF" d="M209.1,150.4h1.4l-1.1,5.1h0.1c0.2-0.2,0.4-0.4,0.6-0.6s0.5-0.4,0.7-0.6c0.3-0.2,0.5-0.3,0.8-0.4
		s0.6-0.2,1-0.2c0.7,0,1.2,0.2,1.5,0.7c0.3,0.5,0.5,1.1,0.5,1.9c0,1.1-0.1,2-0.4,2.9c-0.3,0.8-0.7,1.5-1.2,2.1
		c-0.5,0.6-1.1,1-1.7,1.3s-1.3,0.5-1.9,0.5c-0.6,0-1.2-0.1-1.7-0.2c-0.5-0.1-0.8-0.3-1.1-0.5L209.1,150.4z M212.1,155
		c-0.3,0-0.6,0.1-0.9,0.2s-0.6,0.3-0.9,0.6s-0.5,0.5-0.8,0.8c-0.2,0.3-0.4,0.6-0.6,0.9l-0.9,4.2c0.4,0.3,0.9,0.4,1.5,0.4
		c0.4,0,0.8-0.1,1.2-0.4c0.4-0.2,0.8-0.6,1.2-1c0.3-0.4,0.6-1,0.9-1.7c0.2-0.7,0.3-1.4,0.3-2.2c0-0.6-0.1-1.1-0.3-1.4
		C212.6,155.1,212.4,155,212.1,155z"/>
	<path fill="#FFFFFF" d="M218.3,159.9l0.1,1.7h0.1l0.7-1.7l3-5.8h1.4l-4.2,8c-0.3,0.6-0.6,1.2-0.9,1.7c-0.3,0.6-0.6,1.1-0.9,1.5
		c-0.3,0.4-0.7,0.8-1,1.1c-0.3,0.3-0.7,0.4-1.1,0.4c-0.2,0-0.4,0-0.5,0s-0.3-0.1-0.4-0.1l0.4-1.2c0.1,0,0.3,0.1,0.4,0.1
		c0.3,0,0.7-0.2,1-0.5c0.3-0.4,0.7-1,1.2-1.8l-1.5-9h1.4L218.3,159.9z"/>
	<path fill="#FFFFFF" d="M228.6,150.4c0.3,0,0.5-0.1,0.9-0.1c0.3,0,0.6,0,1-0.1c0.3,0,0.7,0,1,0c0.3,0,0.6,0,0.9,0
		c1.1,0,2.1,0.2,2.9,0.5s1.4,0.8,1.9,1.3c0.5,0.6,0.9,1.2,1.1,2c0.2,0.8,0.3,1.6,0.3,2.6c0,0.9-0.1,1.7-0.3,2.5
		c-0.2,0.8-0.6,1.5-1.1,2.1c-0.5,0.6-1.2,1.1-2,1.5c-0.8,0.4-1.8,0.6-3.1,0.6c-0.2,0-0.4,0-0.8,0c-0.3,0-0.6,0-1,0
		c-0.3,0-0.7,0-1-0.1c-0.3,0-0.5,0-0.7-0.1V150.4z M232.5,152.4c-0.3,0-0.5,0-0.8,0c-0.3,0-0.5,0-0.6,0.1v8.4c0,0,0.1,0,0.2,0
		c0.1,0,0.2,0,0.4,0c0.1,0,0.3,0,0.4,0c0.1,0,0.2,0,0.3,0c0.7,0,1.3-0.1,1.7-0.4c0.5-0.2,0.8-0.6,1.1-1c0.3-0.4,0.5-0.9,0.6-1.4
		c0.1-0.5,0.2-1.1,0.2-1.6c0-0.5,0-1-0.1-1.5c-0.1-0.5-0.3-0.9-0.5-1.3c-0.3-0.4-0.6-0.7-1.1-1C233.7,152.6,233.1,152.4,232.5,152.4
		z"/>
	<path fill="#FFFFFF" d="M247.4,162.3c-0.4,0.3-0.8,0.5-1.5,0.7c-0.6,0.2-1.3,0.3-2,0.3c-1.5,0-2.5-0.4-3.2-1.3c-0.7-0.8-1-2-1-3.5
		c0-1.6,0.4-2.8,1.1-3.6s1.8-1.2,3.2-1.2c0.5,0,0.9,0.1,1.3,0.2c0.4,0.1,0.8,0.3,1.2,0.6c0.3,0.3,0.6,0.6,0.8,1.1
		c0.2,0.5,0.3,1,0.3,1.7c0,0.3,0,0.5,0,0.8c0,0.3-0.1,0.6-0.1,0.9h-5.4c0,0.8,0.2,1.3,0.6,1.7c0.4,0.4,0.9,0.6,1.7,0.6
		c0.5,0,0.9-0.1,1.3-0.2c0.4-0.1,0.7-0.3,0.9-0.5L247.4,162.3z M244,155.6c-0.6,0-1.1,0.2-1.4,0.5c-0.3,0.4-0.5,0.9-0.5,1.5h3.3
		c0-0.6-0.1-1.1-0.3-1.5S244.6,155.6,244,155.6z"/>
	<path fill="#FFFFFF" d="M249.3,150.4h2.3v4.3h0.1c0.3-0.3,0.6-0.5,1-0.7s0.8-0.3,1.3-0.3c1.1,0,1.9,0.4,2.5,1.1
		c0.6,0.7,0.9,1.9,0.9,3.4c0,1.6-0.4,2.9-1.2,3.7c-0.8,0.8-1.9,1.3-3.3,1.3c-0.8,0-1.5-0.1-2.1-0.2s-1.1-0.3-1.4-0.4V150.4z
		 M253.3,155.8c-0.4,0-0.8,0.1-1.1,0.3s-0.5,0.5-0.6,1v3.9c0.2,0.1,0.4,0.2,0.6,0.2c0.2,0,0.5,0.1,0.7,0.1c0.6,0,1.1-0.2,1.4-0.7
		s0.5-1.2,0.5-2.2C254.9,156.6,254.4,155.8,253.3,155.8z"/>
	<path fill="#FFFFFF" d="M259,150.4h2.3v4.3h0.1c0.3-0.3,0.6-0.5,1-0.7s0.8-0.3,1.3-0.3c1.1,0,1.9,0.4,2.5,1.1
		c0.6,0.7,0.9,1.9,0.9,3.4c0,1.6-0.4,2.9-1.2,3.7c-0.8,0.8-1.9,1.3-3.3,1.3c-0.8,0-1.5-0.1-2.1-0.2s-1.1-0.3-1.4-0.4V150.4z
		 M263,155.8c-0.4,0-0.8,0.1-1.1,0.3s-0.5,0.5-0.6,1v3.9c0.2,0.1,0.4,0.2,0.6,0.2c0.2,0,0.5,0.1,0.7,0.1c0.6,0,1.1-0.2,1.4-0.7
		s0.5-1.2,0.5-2.2C264.6,156.6,264,155.8,263,155.8z"/>
	<path fill="#FFFFFF" d="M268.5,151.5c0-0.3,0.1-0.6,0.4-0.9c0.3-0.2,0.6-0.4,1.1-0.4s0.8,0.1,1.1,0.4c0.3,0.2,0.4,0.5,0.4,0.9
		c0,0.3-0.1,0.6-0.4,0.9c-0.3,0.2-0.7,0.4-1.1,0.4s-0.8-0.1-1.1-0.4C268.6,152.1,268.5,151.8,268.5,151.5z M268.8,154h2.3v9h-2.3
		V154z"/>
	<path fill="#FFFFFF" d="M280.7,162.3c-0.4,0.3-0.8,0.5-1.5,0.7c-0.6,0.2-1.3,0.3-2,0.3c-1.5,0-2.5-0.4-3.2-1.3c-0.7-0.8-1-2-1-3.5
		c0-1.6,0.4-2.8,1.1-3.6s1.8-1.2,3.2-1.2c0.5,0,0.9,0.1,1.3,0.2c0.4,0.1,0.8,0.3,1.2,0.6c0.3,0.3,0.6,0.6,0.8,1.1
		c0.2,0.5,0.3,1,0.3,1.7c0,0.3,0,0.5,0,0.8c0,0.3-0.1,0.6-0.1,0.9h-5.4c0,0.8,0.2,1.3,0.6,1.7c0.4,0.4,0.9,0.6,1.7,0.6
		c0.5,0,0.9-0.1,1.3-0.2c0.4-0.1,0.7-0.3,0.9-0.5L280.7,162.3z M277.3,155.6c-0.6,0-1.1,0.2-1.4,0.5c-0.3,0.4-0.5,0.9-0.5,1.5h3.3
		c0-0.6-0.1-1.1-0.3-1.5S277.8,155.6,277.3,155.6z"/>
	<path fill="#FFFFFF" d="M287.2,150.6c0.5-0.1,1.1-0.2,1.7-0.2c0.6-0.1,1.2-0.1,1.8-0.1c0.6,0,1.3,0.1,1.9,0.2s1.2,0.3,1.7,0.6
		c0.5,0.3,0.9,0.7,1.2,1.3c0.3,0.5,0.5,1.3,0.5,2.1c0,0.8-0.1,1.5-0.4,2c-0.3,0.5-0.6,1-1.1,1.3s-1,0.6-1.6,0.8
		c-0.6,0.2-1.2,0.2-1.8,0.2c-0.1,0-0.2,0-0.3,0c-0.1,0-0.3,0-0.4,0s-0.3,0-0.4,0c-0.1,0-0.2,0-0.3,0v4.3h-2.5V150.6z M290.9,152.4
		c-0.2,0-0.5,0-0.7,0c-0.2,0-0.4,0-0.5,0.1v4.1c0,0,0.1,0,0.2,0c0.1,0,0.2,0,0.3,0c0.1,0,0.2,0,0.3,0s0.2,0,0.2,0c0.3,0,0.6,0,1-0.1
		s0.6-0.2,0.9-0.3c0.3-0.2,0.5-0.4,0.6-0.7s0.2-0.7,0.2-1.1c0-0.4-0.1-0.7-0.2-1c-0.1-0.3-0.3-0.5-0.6-0.6c-0.2-0.2-0.5-0.3-0.8-0.3
		S291.2,152.4,290.9,152.4z"/>
	<path fill="#FFFFFF" d="M296.9,154.5c0.5-0.2,1-0.4,1.7-0.5c0.7-0.1,1.4-0.2,2.1-0.2c0.6,0,1.1,0.1,1.6,0.2c0.4,0.2,0.8,0.4,1,0.6
		s0.4,0.6,0.5,1c0.1,0.4,0.2,0.8,0.2,1.3c0,0.5,0,1.1-0.1,1.6c0,0.5-0.1,1.1-0.1,1.6c0,0.5,0,1,0,1.5c0,0.5,0.1,0.9,0.3,1.4h-1.9
		l-0.4-1.2h-0.1c-0.2,0.4-0.6,0.7-1,1c-0.4,0.3-1,0.4-1.6,0.4c-0.4,0-0.8-0.1-1.1-0.2c-0.3-0.1-0.6-0.3-0.9-0.5
		c-0.2-0.2-0.4-0.5-0.6-0.8c-0.1-0.3-0.2-0.7-0.2-1.1c0-0.6,0.1-1,0.4-1.4c0.2-0.4,0.6-0.7,1.1-0.9c0.5-0.2,1-0.4,1.7-0.5
		c0.6-0.1,1.4-0.1,2.2-0.1c0.1-0.7,0-1.2-0.1-1.4c-0.2-0.3-0.6-0.4-1.2-0.4c-0.5,0-1,0-1.5,0.1s-1,0.2-1.3,0.4L296.9,154.5z
		 M299.8,161.2c0.5,0,0.8-0.1,1.1-0.3c0.3-0.2,0.5-0.4,0.6-0.7v-1.2c-0.4,0-0.7,0-1.1,0c-0.3,0-0.6,0.1-0.9,0.2
		c-0.3,0.1-0.5,0.2-0.6,0.4c-0.2,0.2-0.2,0.4-0.2,0.6c0,0.3,0.1,0.6,0.3,0.8C299.2,161.2,299.5,161.2,299.8,161.2z"/>
	<path fill="#FFFFFF" d="M308.8,159.3h-0.6v3.7h-2.3v-12.6h2.3v7.4l0.5-0.3l2.1-3.6h2.6l-2.2,3.4l-0.9,0.7l1,0.7l2.4,4.2H311
		L308.8,159.3z"/>
	<path fill="#FFFFFF" d="M314.2,161l3.5-4.3l0.9-0.8h-4.5v-2h7.1v2l-3.5,4.3l-0.9,0.7h4.4v2h-7.1V161z"/>
	<path fill="#FFFFFF" d="M322.9,154.5c0.5-0.2,1-0.4,1.7-0.5c0.7-0.1,1.4-0.2,2.1-0.2c0.6,0,1.1,0.1,1.6,0.2c0.4,0.2,0.8,0.4,1,0.6
		s0.4,0.6,0.5,1c0.1,0.4,0.2,0.8,0.2,1.3c0,0.5,0,1.1-0.1,1.6c0,0.5-0.1,1.1-0.1,1.6c0,0.5,0,1,0,1.5c0,0.5,0.1,0.9,0.3,1.4h-1.9
		l-0.4-1.2h-0.1c-0.2,0.4-0.6,0.7-1,1c-0.4,0.3-1,0.4-1.6,0.4c-0.4,0-0.8-0.1-1.1-0.2c-0.3-0.1-0.6-0.3-0.9-0.5
		c-0.2-0.2-0.4-0.5-0.6-0.8c-0.1-0.3-0.2-0.7-0.2-1.1c0-0.6,0.1-1,0.4-1.4c0.2-0.4,0.6-0.7,1.1-0.9c0.5-0.2,1-0.4,1.7-0.5
		c0.6-0.1,1.4-0.1,2.2-0.1c0.1-0.7,0-1.2-0.1-1.4c-0.2-0.3-0.6-0.4-1.2-0.4c-0.5,0-1,0-1.5,0.1s-1,0.2-1.3,0.4L322.9,154.5z
		 M325.9,161.2c0.5,0,0.8-0.1,1.1-0.3c0.3-0.2,0.5-0.4,0.6-0.7v-1.2c-0.4,0-0.7,0-1.1,0c-0.3,0-0.6,0.1-0.9,0.2
		c-0.3,0.1-0.5,0.2-0.6,0.4c-0.2,0.2-0.2,0.4-0.2,0.6c0,0.3,0.1,0.6,0.3,0.8C325.2,161.2,325.5,161.2,325.9,161.2z"/>
	<path fill="#FFFFFF" d="M331.9,150.4h2.3v4.3h0.1c0.3-0.3,0.6-0.5,1-0.7s0.8-0.3,1.3-0.3c1.1,0,1.9,0.4,2.5,1.1
		c0.6,0.7,0.9,1.9,0.9,3.4c0,1.6-0.4,2.9-1.2,3.7c-0.8,0.8-1.9,1.3-3.3,1.3c-0.8,0-1.5-0.1-2.1-0.2s-1.1-0.3-1.4-0.4V150.4z
		 M335.9,155.8c-0.4,0-0.8,0.1-1.1,0.3s-0.5,0.5-0.6,1v3.9c0.2,0.1,0.4,0.2,0.6,0.2c0.2,0,0.5,0.1,0.7,0.1c0.6,0,1.1-0.2,1.4-0.7
		s0.5-1.2,0.5-2.2C337.5,156.6,336.9,155.8,335.9,155.8z"/>
	<path fill="#FFFFFF" d="M341.5,154.5c0.5-0.2,1-0.4,1.7-0.5c0.7-0.1,1.4-0.2,2.1-0.2c0.6,0,1.1,0.1,1.6,0.2c0.4,0.2,0.8,0.4,1,0.6
		s0.4,0.6,0.5,1c0.1,0.4,0.2,0.8,0.2,1.3c0,0.5,0,1.1-0.1,1.6c0,0.5-0.1,1.1-0.1,1.6c0,0.5,0,1,0,1.5c0,0.5,0.1,0.9,0.3,1.4h-1.9
		l-0.4-1.2h-0.1c-0.2,0.4-0.6,0.7-1,1c-0.4,0.3-1,0.4-1.6,0.4c-0.4,0-0.8-0.1-1.1-0.2c-0.3-0.1-0.6-0.3-0.9-0.5
		c-0.2-0.2-0.4-0.5-0.6-0.8c-0.1-0.3-0.2-0.7-0.2-1.1c0-0.6,0.1-1,0.4-1.4c0.2-0.4,0.6-0.7,1.1-0.9c0.5-0.2,1-0.4,1.7-0.5
		c0.6-0.1,1.4-0.1,2.2-0.1c0.1-0.7,0-1.2-0.1-1.4c-0.2-0.3-0.6-0.4-1.2-0.4c-0.5,0-1,0-1.5,0.1s-1,0.2-1.3,0.4L341.5,154.5z
		 M344.4,161.2c0.5,0,0.8-0.1,1.1-0.3c0.3-0.2,0.5-0.4,0.6-0.7v-1.2c-0.4,0-0.7,0-1.1,0c-0.3,0-0.6,0.1-0.9,0.2
		c-0.3,0.1-0.5,0.2-0.6,0.4c-0.2,0.2-0.2,0.4-0.2,0.6c0,0.3,0.1,0.6,0.3,0.8C343.8,161.2,344.1,161.2,344.4,161.2z"/>
	<path fill="#FFFFFF" d="M355.9,163v-5.1c0-0.7-0.1-1.3-0.3-1.6c-0.2-0.3-0.6-0.5-1.1-0.5c-0.4,0-0.8,0.1-1.1,0.4
		c-0.3,0.3-0.5,0.6-0.7,1v5.8h-2.3v-9h1.9l0.3,1.2h0.1c0.3-0.4,0.6-0.7,1.1-1c0.5-0.3,1-0.4,1.8-0.4c0.4,0,0.8,0.1,1.2,0.2
		c0.3,0.1,0.6,0.3,0.9,0.6c0.2,0.3,0.4,0.7,0.5,1.1s0.2,1.1,0.2,1.8v5.6H355.9z"/>
</g>
</svg>
