<?xml version="1.0" encoding="utf-8"?>
<!-- Generator: Adobe Illustrator 18.0.0, SVG Export Plug-In . SVG Version: 6.00 Build 0)  -->
<!DOCTYPE svg PUBLIC "-//W3C//DTD SVG 1.1//EN" "http://www.w3.org/Graphics/SVG/1.1/DTD/svg11.dtd">
<svg version="1.1" id="Layer_1" xmlns="http://www.w3.org/2000/svg" xmlns:xlink="http://www.w3.org/1999/xlink" x="0px" y="0px"
	 viewBox="0 0 213.8 57.8" enable-background="new 0 0 213.8 57.8" xml:space="preserve">
<g>
	<g>
		<g>
			<path fill="#FFFFFF" d="M67.1,35.4c-0.5,0-0.4,0.5-0.5,0.8c-0.3,1.8-1,3.4-2.1,4.8c-0.9,1.2-2,1-2.6-0.4
				c-0.3-0.7-0.5-1.5-0.6-2.3c-0.4-7.6-0.1-15.3,0.7-22.9c0.1-0.6,0.4-1.6-0.4-1.7c-0.9-0.1-0.6,1-0.7,1.5c-0.4,2.7-0.6,5.5-0.8,8.3
				c0,0.3,0.1,1-0.3,0.9c-2-0.7-2.5,1-3.2,2.1c-1.3,2.1-1.9,4.5-2.4,7c-0.4,2-0.1,4.2-1.4,6c-0.4,0.7-0.8,1.7-1.8,1.4
				c-1-0.2-0.9-1.2-1.1-2c0-0.2,0-0.3,0-0.5c-0.1-2.6,0.1-5.1,0.9-7.6c0.1-0.4,0.4-0.8-0.1-1.1c-0.4-0.2-0.5,0.3-0.7,0.5
				c-0.5,0.5-1,1-1.7,0.6c-0.7-0.4-0.4-1.1-0.3-1.7c0.4-1.6,0.5-3.3,0.4-4.9c0-0.5,0-1.2-0.5-1.3c-0.7-0.1-0.7,0.7-0.9,1.2
				c-0.5,1.8-0.4,3.6-0.2,5.4c0.3,3.3,0.1,6.6-1.5,9.6c-0.6,1.2-1.5,2-3.1,2c0.2-0.4,0.3-0.6,0.4-0.9c1.5-3.7,1.5-7.4-0.2-11
				c-0.7-1.5-1.8-2.9-3.7-2.8c-1.9,0-2.9,1.4-3.7,2.9c-0.7,1.2-1,2.6-1.1,4c-0.3,2.8-0.1,5.5,1.4,8c1.3,2.2,3.2,2.7,5.5,1.5
				c0.3-0.2,0.6-0.3,1-0.3c1.6,0.1,2.8-0.7,3.7-2c1.6-2.2,2-4.8,2.2-7.4c0-0.5,0-1,0.7-0.7c0.5,0.1,1.2-0.1,1,0.9
				c-0.2,1-0.3,2-0.4,2.9c-0.2,1.8-0.3,3.5,0.3,5.3c0.2,0.7,0.6,1.3,1.4,1.5c0.8,0.2,1.3-0.4,1.7-1c0.5-0.8,1-1.6,1.5-2.5
				c0.3,0.3,0.3,0.6,0.4,0.9c0.4,0.9,0.8,1.9,2,2c1.2,0.2,1.9-0.6,2.5-1.5c0.4-0.7,0.7-1.4,1.3-2.5c0.4,1.2,0.6,2.2,1,3.1
				c1,1.8,2.4,2,3.7,0.4c1.5-1.7,2.2-3.7,2.6-5.9C67.4,36,67.6,35.5,67.1,35.4z M40,42.4c-0.1,0.4-0.5,0.5-0.9,0.6
				c-1.1,0.3-1.8-0.3-2.4-1.1c-0.8-1.2-1.1-2.5-1.2-3.8c-0.4-2.9-0.1-5.8,1.2-8.5c0.5-1.1,1.2-2,2.4-2.1c1.1,0,1.7,0.7,2.2,1.5
				c0.2,0.4,0,0.5-0.3,0.6c-4.7,2.6-5.4,8.6-1.5,12.1C39.7,41.9,40.1,42,40,42.4z M41.3,40.6c-0.2,0.6-0.5,0.8-1.1,0.3
				c-2-1.5-2.5-3.6-2.4-5.9c0.1-2,1.1-3.6,2.9-4.6c0.7-0.4,1.1-0.3,1.3,0.6c0.3,1.3,0.4,2.5,0.4,3.7C42.4,36.8,42.1,38.7,41.3,40.6z
				 M59.8,28c-0.1,1.2-0.1,2.4-0.2,3.6c-0.1,1.8,0.2,3.7-0.2,5.5c-0.2,0.9-0.5,1.8-1.1,2.6c-0.3,0.4-0.7,0.9-1.3,0.8
				c-0.7-0.1-0.9-0.6-1.1-1.2c-0.2-0.6-0.4-1.2-0.4-1.8c-0.2-3.5,0.2-7,1.7-10.2c0.3-0.8,0.7-2,1.8-1.7C60,26,59.9,27.1,59.8,28z"/>
			<path fill="#FFFFFF" d="M28,27.9l1.6-5.1c2.1-0.4,3-0.6,4.7-1.2c4.6-1.7,11-6.4,10.2-11c-0.3-2-1.8-3.2-3.9-3.2
				c-4.2,0-8.8,5-13,14L27.3,22h-0.2c-5.7,0-9.6-2.7-10.4-7.2c-0.4-2.1,0.1-4,1.2-5.3c0.9-1.1,2.2-1.7,3.8-1.7c1.5,0,2.3,0.5,3,0.9
				c0.2,0.1,0.4,0.3,0.7,0.4l0.2,0.1c0,0,0.5-0.3,0.3-0.7c0,0-0.1-0.1-0.1-0.1c-1.7-1.2-2.6-1.5-4.1-1.5c-1.9,0-3.5,0.7-4.6,2.1
				c-1.3,1.5-1.8,3.7-1.4,6c0.8,4.8,5.2,7.9,11.5,8.1l-1.6,4.6c-2.9,8.1-5.2,12.2-7.6,13.8l-0.9-0.3c-0.6-0.2-1.2-0.3-1.7-0.5
				c-2-0.6-3.4-1-5.8-1c-2.3,0-3.8,0.4-4.4,1.1c-0.3,0.3-0.4,0.7-0.3,1.1c0.3,1.6,2.5,2.4,6.1,2.4c3.9,0,6.3-1.3,7.2-1.8l2.6,0.9
				c1.9,0.7,3.4,1,5,1c4.4,0,8.2-2,9.8-5.3l0,0l0-0.1c0-0.1,0-0.2,0-0.3c0-0.2,0.1-0.6-0.3-0.7l-0.2-0.1l-0.1,0.2
				c-1.3,3.1-4.7,5-8.6,5c-2.4,0-5.6-1-6.8-1.4C20.7,41,25,37.4,28,27.9z M29.8,21.7c0.7-2.2,1.7-5.1,3.1-7.2
				c2.6-4.2,5.1-6.2,7.8-6.2c1.4,0,2.2,0.7,2.4,2.1c0.4,2.3-1.7,5.4-5.4,8.1c-3.2,2.3-5.9,2.8-7.5,3.2C30.2,21.6,30,21.6,29.8,21.7z
				 M16.7,42.2c-1.8,0.9-3.8,1.4-6.1,1.4c-2.9,0-4.4-0.5-4.6-1.6c0-0.2,0-0.4,0.2-0.6c0.4-0.5,1.5-0.8,3.1-0.8
				C11.7,40.7,14.2,41.2,16.7,42.2z"/>
		</g>
		<g>
			<path fill="#FFFFFF" d="M144.6,16.1c-0.6,0-0.7,0.6-0.8,1.1c-0.4,1.5-0.5,3.1-0.7,4.6c-0.4,4.3-0.1,8.6-0.5,12.9
				c-0.2,1.8-0.4,3.6-1.2,5.2c-0.3,0.5-0.6,0.9-1.2,0.9c-0.7,0-1.1-0.5-1.3-1c-0.5-1.2-0.6-2.5-0.4-3.8c0.2-2.1,0.8-4.2,0.6-6.4
				c-0.1-0.8,0.1-2.1-0.7-2c-0.9,0-0.8,1.3-0.9,2.1c-0.2,2.1-0.2,4.3-0.2,6.4c0,2.3-1,4.2-2.7,5.6c-2.9,2.5-6.7,1.2-7.6-2.5
				c-0.8-3.5-0.1-6.8,1.7-9.9c0.2-0.4,0.6-0.8,1-1.1c1.4-1.2,2.8-0.8,3.2,1c0.3,1.5,0.3,2.9-0.3,4.4c-0.2,0.5-0.4,0.9-0.8,1.2
				c-0.3,0.2-1,0.1-0.8,0.6c0.2,0.4,0.8,0.2,1.2,0.1c0.7-0.3,1.2-0.8,1.5-1.4c0.6-1.2,0.7-2.4,0.6-3.7c-0.2-1.5-0.6-2.9-2.2-3.4
				c-1.6-0.5-2.8,0.3-3.8,1.3c-0.5,0.5-0.9,1.1-1.3,1.7c-1.4,2.2-2.1,4.6-2,7.1c0,1.8-0.7,3.2-1.7,4.5c-0.3,0.5-0.7,0.9-1.4,0.8
				c-0.7-0.2-0.8-0.8-0.9-1.3c-0.1-0.6-0.2-1.2-0.2-1.9c0-3.2,0.1-6.4,0.5-9.5c0.3-2.1,0.7-4.1,1.2-6.2c0.2-0.7,0.1-1.3-0.6-1.6
				c-0.7-0.3-1.1,0.3-1.4,0.8c-0.5,0.8-0.9,1.7-1.2,2.5c-1.1,2.8-1.7,5.7-2.6,8.9c0.1-3.4,0.7-6.5,0.7-9.5c0-0.6,0.2-1.6-0.6-1.7
				c-0.6-0.1-0.7,0.9-0.8,1.5c-0.6,3.9-0.5,7.8-0.5,11.7c0,1.8-0.8,3.4-1.8,4.8c-0.3,0.4-0.7,0.8-1.2,0.6c-0.6-0.2-0.7-0.7-0.7-1.2
				c-0.1-1.5-0.1-3,0.1-4.6c0.2-2.8,0.8-5.5,0.4-8.3c-0.2-1.6-1.1-2.6-2.3-2.8c-2.1-0.4-5.2,3.1-4.6,5.2c0.1,0.3,0.3,0.6,0.6,0.6
				c0.4,0,0.6-0.2,0.7-0.5c0.1-0.3,0.1-0.7,0.1-1.1c0.1-1.2,0.5-2.3,1.5-3.1c1-0.8,2.1-0.5,2.6,0.7c0.3,1,0.3,1.9,0.1,2.9
				c-0.1,0.4-0.2,0.5-0.5,0.6c-3.5,1.4-5.2,4.3-6.3,7.7c-0.6,1.9-0.7,3.8,0,5.7c0.5,1.6,1.8,1.8,3,0.8c0.6-0.5,1.1-1.2,1.5-1.9
				c0.5-0.7,0.9-1.5,1.4-2.3c0.2,0.7,0.4,1.3,0.6,1.8c0.3,0.8,0.7,1.5,1.6,1.6c1,0.1,1.5-0.5,1.9-1.2c0.4-0.6,0.8-1.3,1.3-2.2
				c0,1.4,0,2.5,0,3.6c0,0.4,0.1,0.9,0.7,0.9c0.5,0,0.4-0.5,0.5-0.8c0-0.4,0-0.7,0-1.1c-0.1-2.8,0.2-5.6,0.9-8.4
				c0.6-2.6,1.2-5.3,2.4-8.1c-0.2,2.3-0.4,4.3-0.6,6.2c-0.2,2,0,3.9,0.1,5.9c0.1,1.5,0.3,2.9,0.9,4.3c0.7,1.7,1.8,1.9,3.1,0.6
				c0.8-0.8,1.3-1.9,2-3.1c1.1,2.8,3.2,4,6,4c3,0,4.6-1.9,6.1-4.3c0.3,1.1,0.5,1.9,0.9,2.6c0.9,1.6,2.1,1.6,3,0
				c0.5-0.8,0.8-1.7,1.3-2.9c0.3,2.9,0.2,5.5,0.1,8.2c-0.1,1.7-0.2,3.4-0.8,5c-0.8,2.1-2.1,2.8-4.3,2.1c-0.7-0.2-1.2,0-1.5,0.5
				c-0.4,0.5-0.5,1.1,0.3,1.4c0.7,0.2,1.4,0.2,2.2,0.1c2-0.2,2.6-0.3,3.5-1.4c0.9-1,1.5-2.4,1.7-3.7c0.4-2.8,0.5-4.5,0.4-7.6
				c0-1.5-0.3-3-0.4-4.5c-0.3-6,1.1-11.9,1.5-17.9C145.6,21.4,145.7,16.1,144.6,16.1z M108.4,40.4c-0.6,0.7-1.1,1.8-2.2,1.4
				c-1.2-0.4-1-1.6-1-2.5c0.1-2.8,1.3-5.2,3.2-7.1c0.6-0.6,1.4-1.1,2.4-1.4C111,34.4,110.6,37.6,108.4,40.4z"/>
			<path fill="#FFFFFF" d="M112.3,10.5c-0.1-0.6-0.6-1-1.3-1c0,0,0,0,0,0c-1.2,0-3.1,0.6-4.6,1.5c-0.9,0.5-1.4,0.9-2.4,1.8l-0.6,0.5
				c-2-0.4-2.9-1-5-3.5c-3.3-3.7-5.1-5.4-7.5-6.6c-2.6-1.3-5.7-2-8.7-2c-4.1,0.1-7.7,1.6-9.9,4.3c-1.8,2.2-2.6,5-2.1,7.8
				c0.9,5.5,6.5,9.9,12.5,9.9l0.2,0c2.9-0.1,5.3-1,6.7-2.7c1-1.2,1.5-2.8,1.2-4.5c-0.5-3.2-3.7-5.7-7.2-5.7l-0.1,0
				c-2,0-3.4,0.9-4,2.5c0,0.1,0,0.2,0.1,0.2l0.2,0.2c0,0,0.1,0,0.2,0c0.1,0,0.1,0,0.1-0.1c0.8-1.4,1.8-2.1,3.4-2.1l0.1,0
				c2.8,0,5.2,2.1,5.7,5.1c0.3,1.6-0.1,3-1,4.1c-1.1,1.3-3,2.1-5.4,2.1l-0.2,0c-5.4,0-10.4-4.3-11.3-9.5c-0.4-2.5,0.3-5,1.9-7
				c2-2.4,5.3-3.8,9-3.9l0.2,0c3.1,0,6.2,1.1,8.6,3.1c1.1,0.9,2.4,2.2,3.8,3.8c3.2,3.6,4.5,4.5,7.4,5.1c-3.1,3.1-5.8,7.3-7.8,12.2
				c-4.6,0.1-7.1,0.8-9.9,2.4c-1.5,1-2.9,2.1-3.9,3.3c-1.2-0.3-1.7-0.4-2.9-0.4c-3,0.1-5.8,1.3-7.6,3.5c-1.3,1.6-1.9,3.5-1.6,5.4
				c0.6,3.9,4.2,6.2,9.4,6.2c0.1,0,0.2,0,0.3,0c4-0.1,7.7-1.7,11.1-4.7c3-2.7,5.2-6.2,7-11.3l0.9-2.5l0.2-0.6c0,0,0.1,0,0.1,0
				c0.6,0,2.1,0.2,3.3,0.2c0.4,0,0.7,0,0.9,0l0,0.2c-0.6,3.3-1.2,4.4-2.2,5.6c-0.1,0.1-0.1,0.2,0,0.3l0.3,0.3c0,0,0.1,0.1,0.1,0.1
				c0.1,0,0.1,0,0.1-0.1l0.1-0.1c0.7-0.8,1-1.1,1.5-2.1c0.4-0.7,0.6-1.3,0.8-2c0.1-0.5,0.3-1.1,0.7-1.9l0.2-0.5
				c1.9-1.3,2.7-2.5,2.5-3.5c-0.1-0.6-0.5-1-1-1c-1.2,0-2.2,1.2-2.8,3.5c-0.4,0.1-1.6,0.1-2.7,0.1c-0.6,0-1.1,0-1.4,0
				c0.5-1.5,1.1-2.9,2.1-5.4c1.4-3.3,2.1-4.6,3.1-5.8c0.1-0.1,0.2-0.3,0.3-0.4c0.1-0.2,0.3-0.3,0.4-0.5c0.6,0,0.8,0,1.2,0
				c3.1-0.1,5.6-1.4,6.6-2.6C112.2,11.3,112.4,10.9,112.3,10.5z M110.6,10.2v0.2c0.3,0,0.4,0.1,0.4,0.2c0,0.1-0.1,0.4-0.6,0.9
				c-0.6,0.7-2.1,1.8-5,1.8l-0.3,0c1.6-1.6,4-2.9,5.5-3L110.6,10.2L110.6,10.2z M78.2,45.7c-4.3,0-7.5-2-8-5.2
				c-0.3-1.8,0.3-3.6,1.5-5.1c1.5-1.8,3.9-3,6.4-3l0.1,0c0.6,0,1,0.1,1.7,0.2l0.2,0c-1.6,2.2-2.2,4-1.9,5.9c0.3,1.7,1.4,2.9,2.8,2.9
				h0c1,0,2-0.6,2.7-1.6c0.8-1.1,1.2-2.5,1-3.8c-0.3-1.6-1.1-2.8-2.8-3.7c3.2-3.2,7-4.9,11.2-5c0.1,0,0.2,0,0.4,0
				c0.2,0,0.5,0,0.9,0.1l-2,6c-2.7,7.9-7.5,12.1-13.9,12.2L78.2,45.7z M82.2,39.7c-0.3,0.4-0.7,0.6-1.2,0.6c-0.8,0-1.5-0.7-1.7-1.9
				c-0.3-1.6,0.3-3.1,1.8-5.3c1.1,0.7,1.6,1.4,1.8,2.7C83.2,37.4,82.9,38.8,82.2,39.7z"/>
		</g>
		<path fill="#FFFFFF" d="M204.6,31.5c-0.4-0.6-0.7-1.2-1-1.9c-0.3-0.6-0.5-1.2-0.5-1.9c0-0.9,0.1-1.9,1.2-2.2
			c1.1-0.2,1.7,0.5,2,1.4c0.4,0.9,0.3,1.8,0.4,2.7c0.1,0.6,0.3,1,1,1c0.7,0,0.7-0.6,0.7-1c-0.1-1.8-0.7-3.4-2.2-4.4
			c-1.6-1.1-3.5-0.4-4.1,1.5c-0.3,1.1-0.2,2.1,0.1,3.2c0.6,1.8,1.5,3.5,2.5,5.1c1,1.8,2.1,3.5,2.7,5.4c0.5,1.5,0.2,2.7-0.6,3.1
			c-0.8,0.5-2.1-0.1-3-1.3c-1.5-1.9-1.6-4-1.4-6.2c0-0.3,0.1-1.1-0.2-0.8c-0.6,0.9-0.8,1.9-1.2,2.9c-0.6,1.5-1.3,2.9-2.4,4.1
			c-0.9,1-1.6,0.8-2.2-0.4c-0.3-0.6-0.4-1.3-0.5-1.9c-0.5-4-0.3-7.9-0.2-11.9c0-3,0.2-3.1,3.2-2.4c0.4,0.1,1,0.4,1.2-0.3
			c0.2-0.7-0.4-0.9-0.9-1.1c-0.9-0.3-1.7-0.2-2.6-0.2c-0.5,0-0.7-0.1-0.6-0.6c0.2-1.5,0.3-3.1,0.4-4.6c0.1-1.4,0.6-4.1,0.1-4.2
			c-0.3,0-0.4,0.7-0.5,1.1c-0.7,2.5-1,5.1-1.3,7.7c-0.1,0.7-0.3,1-0.9,1.3c-1.2,0.5-2.1,1.3-2.2,2.7c0,0.3-0.1,0.6,0.3,0.7
			c0.3,0.1,0.5-0.2,0.5-0.5c0.2-1.2,1-1.7,2.1-2c-0.3,3.2-0.5,6.2-0.4,9.3c0.1,2.3-1,4.1-2.2,5.8c-0.7,1-1.5,0.8-1.9-0.4
			c-0.1-0.3-0.2-0.7-0.2-1c-0.2-3.1,0-6.2,0.3-9.3c0.2-1.8,0.5-3.6,1-5.4c0.1-0.6,0.2-1.2-0.5-1.5c-0.8-0.3-1,0.4-1.3,0.8
			c-0.5,0.9-0.9,1.9-1.2,2.8c-0.8,2.2-1.3,4.6-2,7.1c0.1-3,0.6-5.8,0.6-8.5c0-0.5,0.1-1.4-0.5-1.4c-0.6-0.1-0.6,0.8-0.7,1.3
			c-0.5,3.3-0.4,6.7-0.3,10c0,1.6-0.5,3-1.3,4.4c-0.3,0.5-0.6,1-1.3,0.9c-0.7-0.2-0.7-0.9-0.7-1.5c-0.1-2,0.1-4,0.3-5.9
			c0.1-1.7,0.4-3.5,0.1-5.2c-0.2-1-0.7-1.9-1.7-2.2c-1.1-0.4-1.9,0.1-2.7,0.8c-0.9,0.8-1.4,1.8-1.6,3c-0.1,0.5-0.1,1.2,0.5,1.3
			c0.7,0.1,0.8-0.6,0.8-1.1c0-1,0.3-2,1-2.7c0.4-0.5,0.9-0.8,1.6-0.6c0.7,0.1,0.9,0.7,1.1,1.3c0.2,0.7,0.1,1.5,0,2.2
			c0,0.3-0.1,0.4-0.4,0.6c-4.2,2.1-6.6,6.7-5.8,11.2c0.1,0.8,0.4,1.6,1.2,1.9c1,0.3,1.6-0.3,2.1-0.9c0.8-0.9,1.4-2.1,2-3.3
			c0.2,0.7,0.3,1.3,0.6,1.8c0.7,1.6,2,1.7,3,0.3c0.4-0.6,0.7-1.2,1.3-2.1c0,1.1,0,2,0,2.9c0,0.4,0,1,0.6,1c0.6,0,0.5-0.6,0.5-1
			c0.1-1.9-0.1-3.7,0.3-5.6c0.6-3.2,1.3-6.4,2.5-9.8c-0.2,2.3-0.4,4.2-0.5,6.1c-0.1,2.7,0,5.5,0.8,8.1c0.2,0.7,0.5,1.5,1.4,1.7
			c0.9,0.2,1.4-0.5,1.8-1.1c0.8-1,1.2-2.1,1.9-3.3c0.2,1,0.4,1.8,0.5,2.6c0.2,0.8,0.5,1.6,0.9,2.3c0.9,1.6,2.1,1.7,3.3,0.4
			c0.4-0.4,0.7-0.8,0.9-1.2c0.6-1,1.1-2,1.7-3.1c0.3,1.4,0.8,2.6,1.7,3.6c2,2.4,4.8,2.3,5.7-0.7c0,0,0.5-1.3,0.1-2.7
			C208,36.5,206.2,34.1,204.6,31.5z M178.7,39.7c-0.3,0.4-0.6,0.8-1,1.1c-0.7,0.6-1.3,0.4-1.7-0.4c-1.2-2.7,1.8-8.5,4.8-9.1
			C180.9,34.3,180.6,37.2,178.7,39.7z"/>
		<path fill="#FFFFFF" d="M186.6,7.2c-1.3-0.5-2.2-0.6-3-0.6c-0.2,0-0.5,0-0.7,0c-1.5,0.2-2.7,0.6-4.1,1.5c-1.4-1.1-3.3-1.6-5.6-1.6
			c-0.5,0-1.1,0-1.7,0.1c-1,0.1-3.7,0.6-6.8,2.3c-4,2.2-7.1,5.8-9.5,10.4c-2.3,4.6-2.9,8.7-2,13.2c0.1,0.4,0.2,0.8,0.4,1.6l-0.5,0.3
			c-4.7,2.6-6.8,5.1-6.3,7.6c0.4,2.1,2,3.3,4.4,3.3c0.3,0,0.6,0,0.9,0c2.2-0.2,4.7-1.4,7-3.3c2.3,1.4,4.1,2.3,6.4,2.3
			c0.3,0,0.6,0,0.9-0.1c1.9-0.2,3.4-0.9,4.2-2c0.7-0.9,0.9-2,0.6-3.3c-0.5-2.3-2-4-5.1-5.4c1.2-2.1,2.4-4.4,3.6-7.1
			c0.8,0.2,1.3,0.2,1.9,0.2c0.4,0,0.7,0,1.2-0.1c2.8-0.3,5.3-1.8,7.1-4.2c1.9-2.6,2.6-5.9,2-9c-0.4-2.1-1.2-3.6-2.7-4.9
			c1.1-0.9,2.4-1.4,3.9-1.5c0.3,0,0.5,0,0.8,0c0.8,0,1.5,0.1,2.4,0.5c0,0,0,0,0,0c0,0,0,0,0,0L186.6,7.2
			C186.6,7.2,186.6,7.2,186.6,7.2z M159.9,41.3c2-1.8,3.1-3.1,4.8-5.4l0.2-0.2c0.4-0.5,0.6-0.8,1.1-1.5c2.1,0.9,3.7,2.7,4.1,4.7
			c0.3,1.3,0.1,2.5-0.5,3.4c-0.6,0.9-1.7,1.4-3.1,1.5c-0.3,0-0.6,0-0.9,0c0,0,0,0,0,0c-1.9,0-3.8-0.7-5.9-2.2L159.9,41.3z
			 M158.4,41.5c-2.4,2.1-4.2,3-6.3,3.2c-0.3,0-0.6,0-0.8,0h0c-2,0-3.2-0.9-3.5-2.4c-0.5-2.5,2.3-5.9,6.1-7.4
			C154.7,37.6,156.2,39.7,158.4,41.5z M159.6,33.3L159.6,33.3C159.6,33.3,159.6,33.3,159.6,33.3c0.6,0,1.1,0,1.6,0
			c0.9,0,1.7,0.1,2.9,0.4l-0.3,0.6c-1.5,2.9-3.2,5.2-4.9,6.8c0,0,0,0-0.1,0.1c0,0-0.1-0.1-0.1-0.1c-0.8-0.7-2.8-2.5-4.1-6.4
			C156.3,33.9,157.8,33.5,159.6,33.3z M167.9,25.1c-1.7-0.8-2.7-2-3.1-4c-0.4-2.2,0.2-4.3,1.6-5.6c0,0,0,0,0-0.1l-0.2-0.3
			c0,0,0,0,0,0c0,0,0,0,0,0c-1.7,1.5-2.4,3.7-2,6c0.4,2.1,1.5,3.4,3.5,4.4l0,0c-1.1,2.9-2.1,5.3-3.3,7.5c-1.1-0.3-1.9-0.4-2.9-0.4
			c-0.6,0-1.3,0-2.3,0.2c-1.8,0.2-2.9,0.4-4.7,1.1c-0.1-0.3-0.1-0.5-0.2-0.7c-0.1-0.2-0.1-0.4-0.2-0.7c-0.8-4.2-0.3-8.2,1.8-12.7
			c2.2-4.7,5.3-8.2,9.2-10.4c3.1-1.7,5.7-2.2,6.7-2.3c0.4,0,0.8-0.1,1.2-0.1c1.9,0,3.5,0.5,4.9,1.6c-4.9,3.7-7.8,10-9,13.5
			L167.9,25.1z M172.7,26.1c-0.2,0-0.5,0-0.7,0c-0.6,0-1.2-0.1-2-0.3c0.2-0.6,2.5-7.2,3.8-10.1c1.1-2.3,2.5-4.7,4.8-6.5
			c0.9,1.1,1.2,1.7,1.5,3.2c0.6,3,0.2,7.6-2,10.6C176.8,24.8,175,25.9,172.7,26.1L172.7,26.1C172.7,26.1,172.7,26.1,172.7,26.1
			C172.7,26.1,172.7,26.1,172.7,26.1z"/>
	</g>
</g>
</svg>
